<?xml version="1.0" encoding="UTF-8"?>
<svg version="1.1" xmlns="http://www.w3.org/2000/svg" width="3333" height="1217">
<path d="M0 0 C1.69905862 0.00056958 1.69905862 0.00056958 3.43244165 0.00115067 C4.73373925 -0.00084038 6.03503685 -0.00283143 7.37576771 -0.00488281 C8.83880917 -0.00202921 10.30185045 0.0009164 11.76489156 0.00394398 C13.30430534 0.00350841 14.84371904 0.00263378 16.38313234 0.00135481 C20.6336694 -0.00089301 24.8841815 0.00313504 29.13471538 0.00813287 C33.71074601 0.01243309 38.28677513 0.01099126 42.86280721 0.0102306 C50.79784952 0.00970509 58.73288363 0.01285469 66.66792387 0.01846844 C78.14079886 0.02657982 89.61366988 0.02919829 101.08654743 0.03045643 C119.69848287 0.03264752 138.31041394 0.03930915 156.92234701 0.04875904 C175.0069822 0.05793169 193.09161621 0.06501324 211.17625326 0.06926686 C212.8470832 0.06966094 212.8470832 0.06966094 214.55166728 0.07006299 C220.13945522 0.07136798 225.72724316 0.0726317 231.31503111 0.07387489 C277.70472863 0.08424928 324.09442138 0.10186915 370.48411459 0.1241985 C370.93346723 16.54731058 371.26561065 32.96834992 371.46854585 49.39617306 C371.56539695 57.029002 371.69721133 64.65791665 371.9174642 72.288261 C373.70085736 135.34181785 373.70085736 135.34181785 355.17119306 163.26485974 C350.11657512 170.93882356 346.65069448 179.32637424 343.04661459 187.7491985 C342.35129848 189.34498313 341.65454823 190.94014368 340.95632833 192.53465992 C339.71302411 195.3741743 338.47626163 198.21636853 337.24632162 201.0616985 C335.64649521 204.75820531 334.01913116 208.44206792 332.38645834 212.1241985 C300.18179285 285.27709615 277.04849541 362.50697061 258.48411459 440.1241985 C258.28622335 440.94758717 258.08833212 441.77097584 257.88444418 442.61931568 C244.84402517 496.93652263 235.32718671 552.25622076 228.99265951 607.7504192 C228.84915815 608.99318371 228.84915815 608.99318371 228.70275778 610.26105458 C228.52481233 611.80969551 228.35073189 613.35878704 228.18112081 614.90836293 C227.59529323 620.01301985 227.59529323 620.01301985 226.48411459 621.1241985 C224.45917227 621.21829329 222.43091589 621.24162971 220.40379232 621.23772389 C218.4518823 621.23761059 218.4518823 621.23761059 216.46053976 621.23749501 C215.02959557 621.23238758 213.59865176 621.22717158 212.16770834 621.22185475 C210.71182199 621.21999053 209.25593501 621.21856664 207.80004781 621.21756703 C203.9613208 621.21374215 200.12263139 621.20391214 196.28391927 621.19286305 C192.36953643 621.18264827 188.45514753 621.17806927 184.54075521 621.17302662 C176.85519116 621.16228983 169.16965813 621.14521378 161.48411459 621.1241985 C161.4863352 621.798494 161.48855581 622.4727895 161.49084371 623.1675182 C161.51289388 630.15852541 161.52802006 637.14952281 161.53904623 644.14055592 C161.54408835 646.75286468 161.55092184 649.36517061 161.55955404 651.97746998 C161.57162495 655.72300118 161.57734394 659.46849521 161.58177084 663.21404225 C161.58693212 664.39006504 161.59209341 665.56608784 161.5974111 666.77774769 C161.59752439 668.3993153 161.59752439 668.3993153 161.59763998 670.05364186 C161.59986059 671.01072544 161.6020812 671.96780903 161.6043691 672.95389515 C161.48411459 675.1241985 161.48411459 675.1241985 160.48411459 676.1241985 C158.85346316 676.2222264 157.21853992 676.24975404 155.58494467 676.25003964 C153.98400457 676.25395126 153.98400457 676.25395126 152.35072225 676.2579419 C151.16368704 676.25571118 149.97665182 676.25348046 148.75364584 676.25118214 C146.87907202 676.25352212 146.87907202 676.25352212 144.96662802 676.25590938 C141.48192738 676.26010703 137.99725392 676.25801007 134.51255316 676.25492316 C130.76064006 676.25267104 127.00873181 676.25614773 123.25681967 676.25890309 C115.90054943 676.2633618 108.54428938 676.26238387 101.18801874 676.25949045 C95.21217223 676.25723681 89.23632859 676.25692372 83.26048177 676.25801426 C81.98722728 676.25824411 81.98722728 676.25824411 80.68825048 676.2584786 C78.96413575 676.25879831 77.24002101 676.25912253 75.51590627 676.2594512 C59.32916702 676.26230628 43.14243342 676.25901851 26.95569509 676.25365083 C13.05110293 676.24918276 -0.8534809 676.24995869 -14.75807291 676.25456959 C-30.88484433 676.25991484 -47.01161079 676.26203159 -63.13838297 676.25895733 C-64.85633951 676.25863876 -66.57429606 676.25832439 -68.2922526 676.25801426 C-69.13763464 676.25785999 -69.98301668 676.25770571 -70.85401636 676.25754676 C-76.82626819 676.25668146 -82.79851688 676.25814477 -88.77076823 676.26049381 C-96.04380061 676.26329147 -103.3168222 676.26255428 -110.58985335 676.25721307 C-114.30432899 676.25457559 -118.01878659 676.25357178 -121.73326212 676.25686222 C-125.75066284 676.26036733 -129.76801757 676.25619696 -133.78541666 676.25118214 C-134.97245188 676.25341286 -136.1594871 676.25564358 -137.38249308 676.2579419 C-138.44978647 676.25533415 -139.51707987 676.25272641 -140.61671549 676.25003964 C-141.54534907 676.24987728 -142.47398264 676.24971493 -143.43075663 676.24954766 C-145.51588541 676.1241985 -145.51588541 676.1241985 -146.51588541 675.1241985 C-146.61275576 673.02326025 -146.63775403 670.91900333 -146.63613993 668.81583363 C-146.63742157 667.81612344 -146.63742157 667.81612344 -146.6387291 666.79621708 C-146.64038576 664.54671216 -146.63485952 662.29728062 -146.6294108 660.04778248 C-146.62912895 658.44174409 -146.62928664 656.83570556 -146.62985331 655.22966725 C-146.63014134 650.85588782 -146.62424373 646.48213558 -146.61727935 642.1083625 C-146.61104672 637.54260271 -146.61044209 632.97684237 -146.60925394 628.41107899 C-146.60614036 619.75898544 -146.59792661 611.10690446 -146.58790445 602.45481646 C-146.57465916 590.7676065 -146.56924363 579.08039313 -146.56340224 567.39317757 C-146.55398673 548.97017512 -146.534068 530.5471992 -146.51588541 512.1241985 C-171.59588541 512.1241985 -196.67588541 512.1241985 -222.51588541 512.1241985 C-231.73319372 493.68958188 -231.73319372 493.68958188 -235.06666666 486.83904225 C-235.44713145 486.05869618 -235.82759623 485.27835011 -236.21959025 484.47435719 C-237.42355603 482.00397295 -238.62614072 479.53292073 -239.82838541 477.0616985 C-240.24585032 476.20403889 -240.66331522 475.34637928 -241.09343058 474.46272999 C-248.85618732 458.51217711 -256.57425994 442.54282574 -264.10182291 426.47966725 C-265.42701323 423.65268924 -266.75252702 420.82586324 -268.07838541 417.9991985 C-268.41263529 417.28648793 -268.74688517 416.57377735 -269.09126383 415.83946949 C-274.19920708 404.95685104 -279.39958916 394.12196734 -284.66856486 383.31642872 C-285.81794159 380.95812722 -286.96469541 378.59856639 -288.11085612 376.23870045 C-291.41953589 369.43275674 -294.74820307 362.64059979 -298.16822916 355.8898235 C-298.96523234 354.29303761 -298.96523234 354.29303761 -299.77833658 352.66399342 C-300.73480281 350.74964816 -301.70645209 348.84277389 -302.69679362 346.9457317 C-303.10631266 346.1190398 -303.5158317 345.29234791 -303.93776041 344.44060475 C-304.47288248 343.39561817 -304.47288248 343.39561817 -305.0188151 342.32952076 C-306.16601966 337.23978658 -302.576757 331.90900082 -300.45338541 327.40154225 C-300.15015864 326.75626072 -299.84693186 326.1109792 -299.53451639 325.44614369 C-298.53198736 323.31623737 -297.5241378 321.18890081 -296.51588541 319.0616985 C-295.80319636 317.5517902 -295.09055075 316.0418614 -294.37794596 314.53191334 C-288.7369047 302.60282464 -282.96731023 290.73766914 -277.17161661 278.88314015 C-271.8330048 267.95984485 -266.63273974 256.98806728 -261.55812174 245.9391399 C-256.46943771 234.91326207 -251.12740294 224.0149217 -245.78425699 213.11070973 C-239.81766924 200.92948473 -233.98506115 188.69778081 -228.34791666 176.36052662 C-227.86580729 175.30800709 -227.38369791 174.25548756 -226.88697916 173.1710735 C-226.26714152 171.8074065 -226.26714152 171.8074065 -225.6347819 170.41619068 C-224.51588541 168.1241985 -224.51588541 168.1241985 -222.51588541 165.1241985 C-219.66168886 164.75505501 -219.66168886 164.75505501 -215.93541056 164.76343495 C-215.25174847 164.76087167 -214.56808637 164.7583084 -213.86370724 164.75566745 C-211.5618207 164.75070702 -209.2605831 164.76725882 -206.95875651 164.78362232 C-205.31316239 164.78446811 -203.66756713 164.7839944 -202.02197367 164.78229481 C-197.54486371 164.78143154 -193.06799324 164.79911073 -188.5909391 164.82001668 C-183.91575645 164.83872843 -179.24056873 164.84052957 -174.56535441 164.84409291 C-165.70783444 164.85342959 -156.85042512 164.87806527 -147.99295396 164.90814137 C-137.91089008 164.94163495 -127.828821 164.95815869 -117.74671537 164.97322768 C-97.00304355 165.00461346 -76.25947144 165.05740542 -55.51588541 165.1241985 C-53.20989252 169.85615898 -50.90564876 174.58896604 -48.60289103 179.32250172 C-47.82238398 180.92632175 -47.0414329 182.52992578 -46.25999552 184.13329273 C-41.45086155 194.00164644 -36.71648704 203.8949141 -32.14088541 213.8741985 C-26.52907887 226.06492278 -20.66896675 238.12347082 -14.76640421 250.17540699 C-9.24035827 261.46384349 -3.82228806 272.78538216 1.39085287 284.22258717 C4.7126994 291.45867443 8.19528758 298.59576172 11.76145834 305.71404225 C12.69406285 307.58583449 13.62643509 309.45774248 14.55857748 311.3297649 C15.94736944 314.11822874 17.34188185 316.90290417 18.75703329 319.67809254 C20.07514412 322.26317462 21.37115594 324.85834308 22.66380209 327.45622975 C23.0651386 328.22797032 23.46647512 328.99971089 23.87997335 329.79483753 C26.26992533 334.66104858 26.99085106 337.70704862 25.48411459 343.1241985 C24.41545239 345.70885772 23.31576477 348.13670647 22.05442709 350.62029225 C21.70817785 351.3224889 21.36192861 352.02468556 21.00518698 352.7481609 C20.26479733 354.24752289 19.52009644 355.74476251 18.77143759 357.24001271 C16.80603854 361.16580531 14.87158104 365.10682515 12.93333334 369.0460735 C12.54788854 369.82730076 12.16244375 370.60852803 11.76531881 371.41342884 C8.5270411 377.99213555 5.43968952 384.62877908 2.42161459 391.3116985 C-0.68116174 398.15975386 -3.85860666 404.9427246 -7.25953776 411.64739186 C-10.65317555 418.35121734 -13.93423873 425.10894976 -17.20338541 431.8741985 C-17.50543894 432.49918232 -17.80749247 433.12416615 -18.11869913 433.76808888 C-22.42119 442.68091079 -26.62578532 451.63456606 -30.76588541 460.6241985 C-38.73491234 477.92779537 -47.14988462 495.00902131 -55.51588541 512.1241985 C-81.91588541 512.1241985 -108.31588541 512.1241985 -135.51588541 512.1241985 C-135.51588541 562.2841985 -135.51588541 612.4441985 -135.51588541 664.1241985 C-41.13588541 664.1241985 53.24411459 664.1241985 150.48411459 664.1241985 C150.48411459 649.9341985 150.48411459 635.7441985 150.48411459 621.1241985 C112.20411459 621.1241985 73.92411459 621.1241985 34.48411459 621.1241985 C35.61190062 606.46298007 35.61190062 606.46298007 36.57786459 600.5616985 C36.684746 599.90466435 36.7916274 599.2476302 36.90174764 598.57068592 C37.25495611 596.42051258 37.61825007 594.27225278 37.98411459 592.1241985 C38.11316183 591.36053974 38.24220907 590.59688099 38.37516683 589.81008106 C46.72781875 540.59534036 58.02788624 492.03819108 71.91496176 444.09343678 C72.46790747 442.18027425 73.01540081 440.2655385 73.56272787 438.350761 C89.31929617 383.38224007 109.57845398 329.48420825 132.48411459 277.1241985 C132.9742806 275.9982024 133.46444662 274.87220631 133.96946615 273.71208912 C153.05066767 230.00151747 173.89379978 185.85171606 200.48411459 146.1241985 C199.43882872 146.11996656 198.39354286 146.11573462 197.31658167 146.11137444 C171.92175693 146.00833415 146.52696145 145.89960577 121.13218683 145.78485924 C108.85163808 145.72950214 96.57108643 145.67601613 84.29051107 145.62688404 C73.59095339 145.58407259 62.89141732 145.5378024 52.19189298 145.48731995 C46.52280784 145.46069445 40.85372705 145.43584085 35.18461698 145.41512448 C29.85529045 145.39559523 24.52600514 145.3714628 19.1967153 145.34370762 C17.23466068 145.33431744 15.272597 145.3266493 13.3105287 145.32077938 C10.6439848 145.31255146 7.97754186 145.29828445 5.31103414 145.28241688 C4.52408448 145.28143877 3.73713482 145.28046067 2.9263382 145.27945292 C-2.4017642 145.23831971 -2.4017642 145.23831971 -3.51588541 144.1241985 C-3.61455169 142.27889677 -3.64220697 140.42977761 -3.64286906 138.5818401 C-3.64568888 137.37868656 -3.6485087 136.17553303 -3.65141398 134.9359203 C-3.64946939 133.59047642 -3.6474212 132.2450327 -3.64527994 130.89958912 C-3.64663395 129.4922146 -3.64841389 128.08484042 -3.65059 126.67746693 C-3.65516437 122.84492782 -3.65337477 119.01241551 -3.65021092 115.17987591 C-3.64768733 111.1777955 -3.65002485 107.17571746 -3.65159708 103.17363697 C-3.65341878 96.45158686 -3.65101246 89.72954772 -3.64625651 83.00749928 C-3.64081388 75.22481125 -3.64257654 67.44214942 -3.64808291 59.65946203 C-3.65261403 52.98941548 -3.6532646 46.31937684 -3.65064424 39.64932925 C-3.64908146 35.66034188 -3.64888773 31.67136684 -3.65218073 27.68238026 C-3.65505943 23.93304738 -3.65308378 20.18374842 -3.64728647 16.43441921 C-3.64595887 15.05448993 -3.646353 13.67455781 -3.64854914 12.29462963 C-3.65126059 10.41860639 -3.64726587 8.54257694 -3.64286906 6.66655689 C-3.64249203 5.61424633 -3.642115 4.56193577 -3.64172655 3.47773701 C-3.46665709 0.20350787 -3.28641652 0.16223632 0 0 Z M-164.51588541 235.1241985 C-164.51588541 235.7841985 -164.51588541 236.4441985 -164.51588541 237.1241985 C-165.17588541 237.1241985 -165.83588541 237.1241985 -166.51588541 237.1241985 C-194.24418241 269.64567694 -199.03681805 318.51127573 -196.00221354 359.42424732 C-193.39184963 389.93692047 -185.84740819 425.50262285 -162.69166666 447.4054485 C-155.02150817 453.46446059 -147.33215132 456.76788806 -137.51588541 456.1241985 C-125.9158529 454.14128696 -117.18452486 447.05356036 -110.22389323 437.80266529 C-84.06134616 400.53092213 -80.64688316 346.83439055 -87.98854166 303.32292897 C-92.46842498 277.97425583 -100.142704 247.25286482 -122.15651041 231.19841725 C-136.47473119 222.21737756 -152.08414743 222.97026472 -164.51588541 235.1241985 Z " fill="#000000" transform="translate(2665.515885412693,281.8758015036583)"/>
<path d="M0 0 C20.25520334 -0.07038141 40.51038154 -0.12312986 60.76568222 -0.15543652 C70.17260601 -0.17084219 79.5794534 -0.19180971 88.98632812 -0.22631836 C97.19456039 -0.25641525 105.40273727 -0.27562065 113.61102319 -0.28226548 C117.94889966 -0.28614374 122.28661782 -0.29512315 126.62444305 -0.31719017 C162.54953997 -0.49265165 196.65014984 1.40876889 224.30859375 27.1484375 C240.89992328 44.54831136 248.05265175 70.46318372 248.203125 94.0234375 C248.21018463 94.76286591 248.21724426 95.50229431 248.22451782 96.26412964 C248.4422185 125.74497726 246.4424475 154.00079957 224.7421875 176.33203125 C211.72181552 189 211.72181552 189 205 189 C205 189.66 205 190.32 205 191 C205.78375 191.185625 206.5675 191.37125 207.375 191.5625 C220.80408781 196.88782792 230.90372156 208.18257457 237 221 C244.34401478 238.90103602 245.46360686 256.92473278 245.6953125 276.015625 C245.73220012 278.20548643 245.77038392 280.39532637 245.80978394 282.58514404 C245.90980224 288.31095608 245.99433649 294.03688471 246.0748291 299.76300049 C246.20641632 308.90863267 246.36382656 318.05386938 246.51757431 327.19915009 C246.56867321 330.3519798 246.61431119 333.50484573 246.65872192 336.65777588 C246.81914227 347.33561349 247.11197183 357.98324168 247.75410652 368.64451981 C247.87294993 370.76126464 247.94186298 372.88071886 248 375 C247 376 247 376 245.20589352 376.12304783 C244.02369401 376.12166514 244.02369401 376.12166514 242.81761169 376.12025452 C241.46507797 376.12231651 241.46507797 376.12231651 240.08522034 376.12442017 C239.08828659 376.12082489 238.09135284 376.11722961 237.06420898 376.11352539 C236.02043091 376.11367142 234.97665283 376.11381744 233.90124512 376.1139679 C230.43284057 376.11326826 226.96448897 376.10547353 223.49609375 376.09765625 C221.09855682 376.09579225 218.7010195 376.09436826 216.30348206 376.09336853 C209.97904416 376.08954194 203.65462906 376.07971046 197.3302002 376.06866455 C190.88224598 376.05845345 184.43428809 376.05387156 177.98632812 376.04882812 C165.324209 376.03808832 152.66210571 376.02120119 140 376 C138.66242392 371.47050144 137.70104782 367.35806453 137.40234375 362.640625 C137.28342773 360.84044922 137.28342773 360.84044922 137.16210938 359.00390625 C137.08798828 357.76511719 137.01386719 356.52632812 136.9375 355.25 C136.85951172 354.05761719 136.78152344 352.86523438 136.70117188 351.63671875 C136.49549472 348.43087483 136.30467535 345.22454081 136.12060547 342.01739502 C136.00208299 340.03484257 135.86739543 338.05327777 135.73242188 336.07177734 C135.04305575 325.40905035 134.88341333 314.7515457 134.7890625 304.0703125 C134.77457031 302.52608227 134.76006931 300.98185213 134.74555969 299.43762207 C134.68736453 293.04895561 134.6318972 286.66033549 134.59863281 280.27148438 C134.57750528 276.31364491 134.54210102 272.35614051 134.49787521 268.39849472 C134.48390395 266.91325723 134.4750365 265.42796101 134.47182083 263.94266129 C134.52654501 248.19505446 134.52654501 248.19505446 128.9375 233.8125 C122.6808842 229.95203493 115.15741515 229.89467689 108 229 C108 277.51 108 326.02 108 376 C81.5484375 376.0309375 81.5484375 376.0309375 54.5625 376.0625 C46.19692749 376.07615601 46.19692749 376.07615601 37.66235352 376.09008789 C30.87487793 376.09460449 30.87487793 376.09460449 27.70176697 376.09544373 C25.47597555 376.0969837 23.25018499 376.1005097 21.0243988 376.10557556 C17.6615147 376.11284968 14.29868176 376.11390753 10.93579102 376.11352539 C9.93697434 376.1171235 8.93815767 376.12072161 7.90907383 376.12442875 C6.5593645 376.1223625 6.5593645 376.1223625 5.18238831 376.12025452 C4.3942553 376.12117631 3.6061223 376.1220981 2.79410648 376.12304783 C1 376 1 376 0 375 C-0.09779896 373.00879103 -0.12371259 371.01404732 -0.12304783 369.02043819 C-0.12503888 367.7121738 -0.12702993 366.40390942 -0.12908131 365.05600065 C-0.12622771 363.58509869 -0.1232821 362.1141969 -0.12025452 360.64329529 C-0.12069008 359.09563192 -0.12156472 357.54796862 -0.12284368 356.00030571 C-0.12509152 351.72696556 -0.12106344 347.45365022 -0.11606562 343.18031323 C-0.11176542 338.57974249 -0.11320724 333.97917326 -0.1139679 329.37860107 C-0.11449341 321.40099694 -0.1113438 313.42340096 -0.10573006 305.44579887 C-0.0976187 293.9113857 -0.09500021 282.37697649 -0.09374207 270.84256078 C-0.09155097 252.13079674 -0.08488933 233.41903706 -0.07543945 214.70727539 C-0.06626682 196.52563499 -0.05918526 178.34399576 -0.05493164 160.16235352 C-0.05466892 159.0424929 -0.05440619 157.92263228 -0.05413551 156.76883649 C-0.05283051 151.15108041 -0.0515668 145.53332433 -0.05032361 139.91556823 C-0.03994921 93.27704248 -0.02232934 46.63852146 0 0 Z M109 76 C109 101.08 109 126.16 109 152 C120.4007046 152.51089898 120.4007046 152.51089898 130 149 C138.25773648 140.29589938 137.47878022 126.12010505 137.39111328 114.89086914 C137.37500164 112.43775032 137.39105478 109.98627282 137.41015625 107.53320312 C137.829747 93.63097114 137.829747 93.63097114 132.58349609 81.27075195 C125.47689956 75.00673525 119.12571194 76.632857 109 76 Z " fill="#000000" transform="translate(1043,392)"/>
<path d="M0 0 C35.97 0 71.94 0 109 0 C109.04898437 14.91058594 109.09796875 29.82117188 109.1484375 45.18359375 C109.18381696 54.62175064 109.21969223 64.05990132 109.2578125 73.49804688 C109.31824484 88.48330276 109.37663531 103.46854694 109.421875 118.45385742 C109.45483157 129.36739007 109.49468314 140.28087211 109.54279006 151.19434887 C109.5680185 156.97212283 109.58981064 162.74986337 109.60334396 168.52767754 C109.61619738 173.96868795 109.63828729 179.40958357 109.66738319 184.85053062 C109.67643331 186.84469612 109.6821432 188.83888008 109.68421364 190.83306503 C109.68755433 193.56258103 109.70308042 196.2917751 109.7215271 199.02122498 C109.718625 200.19587748 109.718625 200.19587748 109.71566427 201.39426035 C109.7822324 208.01466157 110.3026724 214.47972568 114.0625 220.0625 C117.55709533 222.36744585 119.72493262 222.73428035 123.84765625 222.48046875 C127.46544442 221.67286812 128.91056045 219.97586844 131 217 C132.91519691 211.60212241 133.29217739 206.82921343 133.2784729 201.18580627 C133.2871615 199.89051582 133.2871615 199.89051582 133.29602563 198.56905788 C133.31296944 195.68865974 133.31589729 192.80842238 133.31884766 189.92797852 C133.3281497 187.85800283 133.33831879 185.78803088 133.34928894 183.71806335 C133.37657173 178.1070945 133.39173331 172.49615074 133.40471697 166.88513303 C133.42035498 161.01811425 133.44714309 155.15114665 133.4727478 149.28416443 C133.51952366 138.17796946 133.55627359 127.07176485 133.58942068 115.96552175 C133.63479983 100.95498697 133.69566805 85.94451552 133.75566864 70.93403339 C133.84977376 47.28938735 133.92318548 23.64472317 134 0 C169.97 0 205.94 0 243 0 C243.14943657 38.07379485 243.29530717 76.14759561 243.4332476 114.22143349 C243.44951953 118.71150593 243.46583513 123.20157821 243.48217773 127.69165039 C243.48705712 129.03254765 243.48705712 129.03254765 243.49203508 130.40053374 C243.54488175 144.89458868 243.60127089 159.38862781 243.6589582 173.8826642 C243.71802676 188.74344947 243.77331397 203.6042453 243.82505554 218.46505791 C243.85712964 227.64259447 243.89218973 236.82010981 243.93101191 245.99762035 C243.95731449 252.2821588 243.97996007 258.56670364 243.99967117 264.8512662 C244.01117077 268.48270917 244.02433885 272.11412687 244.04183006 275.74554634 C244.06070627 279.67320338 244.07191037 283.60085999 244.08229065 287.52854919 C244.08909444 288.68902989 244.09589823 289.84951059 244.10290819 291.04515737 C244.10440054 292.0886837 244.10589289 293.13221002 244.10743046 294.20735836 C244.11255668 295.56922532 244.11255668 295.56922532 244.11778647 296.95860475 C244 299 244 299 243 300 C239.83387337 300.09536242 236.68959372 300.12550636 233.52319336 300.11352539 C232.03067802 300.11374443 232.03067802 300.11374443 230.50801086 300.1139679 C227.20193338 300.11326831 223.89591146 300.10547379 220.58984375 300.09765625 C218.30440807 300.09579223 216.01897199 300.09436825 213.73353577 300.09336853 C207.70501613 300.08954207 201.67652041 300.0797107 195.64801025 300.06866455 C189.50167159 300.05845317 183.35532907 300.0538715 177.20898438 300.04882812 C165.13931238 300.03808854 153.06965818 300.0210106 141 300 C140.51421994 297.91470167 140.02967484 295.82911563 139.5456543 293.7434082 C139.27569138 292.58202835 139.00572845 291.4206485 138.72758484 290.22407532 C137.97553817 286.89160471 137.34112372 283.56255917 136.8125 280.1875 C136.65394531 279.19105469 136.49539063 278.19460938 136.33203125 277.16796875 C136.22246094 276.45253906 136.11289063 275.73710938 136 275 C135.00033203 276.16015625 135.00033203 276.16015625 133.98046875 277.34375 C120.71249209 292.45747342 105.25933697 301.75785994 85 304 C61.83850977 305.05989083 40.62529995 303.86010632 22.09765625 288.4140625 C17.28617765 283.92896429 14.06969037 278.7812502 11 273 C10.5565625 272.16726563 10.113125 271.33453125 9.65625 270.4765625 C-0.59964662 249.65208948 -0.30893222 225.6565005 -0.22705078 202.98339844 C-0.22648504 200.75387578 -0.2268064 198.52435276 -0.22793579 196.29483032 C-0.22850394 190.30856871 -0.2168378 184.3223891 -0.20278788 178.33614635 C-0.19018979 172.05550248 -0.18910292 165.77485622 -0.18673706 159.49420166 C-0.18124954 148.97398576 -0.1688017 138.45379487 -0.15087891 127.93359375 C-0.1324565 117.10872542 -0.11835433 106.28386524 -0.10986328 95.45898438 C-0.10932729 94.78238864 -0.10879129 94.1057929 -0.10823905 93.40869427 C-0.10361194 87.52118127 -0.09930701 81.63366805 -0.09503365 75.74615479 C-0.07629138 50.49740861 -0.03642813 25.24874121 0 0 Z " fill="#000000" transform="translate(1594,468)"/>
<path d="M0 0 C18.63256879 17.27596274 28.35246713 42.12620757 33.62890625 66.4375 C33.94649902 67.86835937 33.94649902 67.86835937 34.27050781 69.328125 C38.04957463 87.43889846 38.02140828 105.70190829 38.06640625 124.125 C38.07580231 125.9293602 38.07580231 125.9293602 38.08538818 127.77017212 C38.19573704 161.349099 35.15773077 197.05674844 19.62890625 227.4375 C18.93667969 228.83548828 18.93667969 228.83548828 18.23046875 230.26171875 C6.65040624 252.68609395 -12.03376277 268.3540658 -35.99609375 276.125 C-44.61858356 278.78257379 -53.44156701 280.24703374 -62.37109375 281.4375 C-63.04325928 281.53321289 -63.7154248 281.62892578 -64.40795898 281.72753906 C-97.66863893 286.0192397 -136.10900522 282.36978267 -163.43359375 261.375 C-165.44759599 259.76434082 -167.4092414 258.1131331 -169.37109375 256.4375 C-170.36496094 255.59638672 -170.36496094 255.59638672 -171.37890625 254.73828125 C-197.76874378 230.37371032 -205.57372699 189.49167136 -208.37109375 155.4375 C-208.48195313 154.25929688 -208.5928125 153.08109375 -208.70703125 151.8671875 C-212.49043011 104.52357476 -210.35602832 46.55075247 -178.37109375 8.4375 C-159.09301949 -13.82491373 -132.21917577 -24.66946237 -103.20825195 -27.09790039 C-65.97862998 -29.7289812 -29.37084333 -24.73334175 0 0 Z M-94.37109375 55.4375 C-99.23449626 67.50813597 -97.80677612 82.0108746 -97.76953125 94.7421875 C-97.77155657 97.19491665 -97.7744718 99.64764521 -97.77822876 102.10037231 C-97.78263218 107.22240982 -97.77628619 112.34428955 -97.76220703 117.46630859 C-97.74513483 123.99093665 -97.75495696 130.51519385 -97.77292442 137.03980827 C-97.78383145 142.09997282 -97.78028403 147.16005133 -97.77254105 152.22021866 C-97.77055717 154.62407603 -97.77293362 157.02794153 -97.77997971 159.4317894 C-98.71434895 181.88453631 -98.71434895 181.88453631 -91.37109375 202.4375 C-88.46162432 204.1674548 -86.69612955 204.44413338 -83.30859375 204.375 C-79.47200221 203.15055589 -78.42551267 201.8859889 -76.37109375 198.4375 C-73.40829283 189.23722346 -73.22105052 179.62059025 -73.22583008 170.02514648 C-73.22247147 169.03662186 -73.21911285 168.04809723 -73.21565247 167.02961731 C-73.20622104 163.78926302 -73.20420307 160.54896088 -73.203125 157.30859375 C-73.19990618 155.03190592 -73.19654165 152.75521829 -73.19303894 150.47853088 C-73.18706656 145.71346559 -73.18519701 140.94841838 -73.18579102 136.18334961 C-73.18589234 130.12063795 -73.17226229 124.05804419 -73.15501881 117.99536037 C-73.14381866 113.2928872 -73.14187428 108.59044176 -73.14240074 103.88795662 C-73.14123182 101.6551784 -73.13687226 99.42239921 -73.12906837 97.18963432 C-72.37536504 74.2046089 -72.37536504 74.2046089 -78.37109375 52.4375 C-80.80070554 51.2226941 -82.53493491 51.20142733 -85.24609375 51.125 C-86.10976562 51.08761719 -86.9734375 51.05023437 -87.86328125 51.01171875 C-91.23264898 51.58377651 -92.19306029 52.83907437 -94.37109375 55.4375 Z " fill="#000000" transform="translate(1526.37109375,490.5625)"/>
<path d="M0 0 C7.40275436 7.21091469 12.95785567 15.00345484 18 24 C18.46019531 24.79664063 18.92039062 25.59328125 19.39453125 26.4140625 C25.32102597 37.36396703 28.74790787 49.73991352 31.25 61.875 C31.40090088 62.59091309 31.55180176 63.30682617 31.70727539 64.04443359 C37.19774358 92.68147839 35 122.08341086 35 151 C-8.56 151 -52.12 151 -97 151 C-97.11097393 178.78564354 -97.11097393 178.78564354 -89 206 C-85.00580686 207.80869123 -82.96793508 208.29782618 -78.75 207 C-75.34925401 204.84930093 -75.34925401 204.84930093 -73 199 C-72.01 192.4 -71.02 185.8 -70 179 C-35.68 179 -1.36 179 34 179 C34 206.68916921 23.80430006 234.01118384 4.81640625 254.30078125 C-13.39729489 271.75663074 -37.64430958 278.73070389 -62 282 C-63.01368652 282.14356934 -63.01368652 282.14356934 -64.04785156 282.29003906 C-97.53140491 286.58517073 -135.9476146 282.29420141 -163.41015625 261.19140625 C-192.70480793 236.40362406 -201.46498592 199.75093142 -205 163 C-205.07202637 162.2584668 -205.14405273 161.51693359 -205.21826172 160.75292969 C-209.51688152 113.06903581 -208.9520433 50.16346806 -176.70556641 11.44580078 C-156.3868398 -12.19557575 -130.26688346 -23.50790167 -99.4375 -26.625 C-64.40690945 -29.13043886 -26.98883544 -24.52350912 0 0 Z M-92 48 C-94.42799776 52.86205039 -95.62701966 57.33395607 -96.1875 62.75 C-96.26790527 63.46792725 -96.34831055 64.18585449 -96.43115234 64.92553711 C-97.30654881 73.61697349 -97.12928625 82.27317825 -97 91 C-88.75 91 -80.5 91 -72 91 C-70.08660394 67.36772472 -70.08660394 67.36772472 -77.75 46.0625 C-82.85231673 43.65307265 -87.78031818 44.3663851 -92 48 Z " fill="#000000" transform="translate(2253,490)"/>
<path d="M0 0 C6.26236033 1.33853803 12.52702572 2.66628703 18.79128838 3.99588776 C20.46152367 4.35044783 22.1317288 4.70515007 23.80190468 5.05998993 C44.53450953 9.46454238 65.28373388 13.78909409 86.03334808 18.1126709 C94.76134078 19.93137151 103.48913673 21.75101512 112.21670914 23.57173157 C113.60566297 23.86147984 113.60566297 23.86147984 115.02267647 24.1570816 C129.89832775 27.26102171 144.76720936 30.39550422 159.63119888 33.55485535 C183.10689335 38.54361571 206.58755905 43.49554919 230.20108414 47.79438782 C285.13421809 57.79946917 339.59595872 69.28919825 392.29874039 87.97798157 C393.347715 88.34488098 394.39668961 88.7117804 395.47745132 89.08979797 C432.89944675 102.26393333 475.26424104 122.24228371 493.82535172 159.40864563 C496.9624781 165.96092308 497.48012674 171.41808492 497.48624039 178.54048157 C497.49848648 179.29522766 497.51073257 180.04997375 497.52334976 180.82759094 C497.54212177 187.92966601 497.54212177 187.92966601 495.29874039 190.97798157 C491.56693338 193.4658529 489.56982692 193.27727746 485.11124039 193.29048157 C483.8389357 193.30723938 482.56663101 193.32399719 481.25577164 193.34126282 C469.22848958 192.82128099 457.04875659 189.30571874 445.45499039 186.31001282 C444.0634502 185.95458328 442.67178362 185.59964828 441.28000259 185.24516296 C438.32487611 184.49159642 435.37052541 183.73509095 432.41678238 182.97612 C427.68902185 181.76149435 422.95942836 180.5541206 418.22940445 179.3483429 C417.42803684 179.14405639 416.62666924 178.93976988 415.80101776 178.72929287 C414.17430829 178.31464392 412.54759038 177.90002806 410.92086411 177.48544502 C408.46356186 176.85899589 406.00641473 176.23194121 403.5492897 175.60479736 C388.39554743 171.73869133 373.22446856 167.94436544 358.04874039 164.16548157 C341.01047241 159.9218952 323.97951765 155.65155519 306.96224213 151.32446098 C304.20840934 150.62430887 301.45444525 149.9246755 298.70044327 149.22518921 C296.85787995 148.75713966 295.01532013 148.28907631 293.17276382 147.82099915 C292.26009813 147.58914948 291.34743244 147.35729982 290.40711021 147.11842442 C285.95388326 145.98673444 281.50110904 144.85332059 277.04935074 143.71586609 C265.47656006 140.75945884 253.89533034 137.83970261 242.29874039 134.97798157 C241.48748955 134.77731834 240.67623871 134.57665512 239.84040451 134.36991119 C197.86142548 124.007511 155.75941531 118.65168407 112.82255936 113.85247803 C106.18854727 113.10890932 99.55567934 112.3552782 92.92276382 111.602005 C90.19986962 111.29289902 87.4769675 110.98386272 84.75406265 110.67485046 C83.73678298 110.55938946 83.73678298 110.55938946 82.6989522 110.44159591 C77.87225113 109.89390815 73.04537409 109.34778917 68.21841812 108.80235291 C41.44710649 105.77661992 14.683019 102.69003105 -12.0790062 99.58323669 C-18.15878602 98.87754763 -24.23885951 98.17442625 -30.31902885 97.47210217 C-34.85811925 96.94742749 -39.39702007 96.42112746 -43.93586731 95.89435387 C-46.02136528 95.65258379 -48.1069315 95.41140145 -50.19257355 95.17087746 C-56.36448075 94.45876061 -62.53452138 93.73363611 -68.70125961 92.97798157 C-69.42556671 92.88967575 -70.14987381 92.80136993 -70.89612961 92.71038818 C-72.84573268 92.46834663 -74.79359547 92.21240287 -76.74129868 91.95552063 C-77.7886821 91.81825562 -78.83606552 91.6809906 -79.91518784 91.53956604 C-87.59581501 89.99139309 -93.99977631 85.1304011 -98.70125961 78.97798157 C-107.15733567 65.35863327 -107.92821956 52.36278397 -104.45028305 36.97309875 C-100.49918732 20.68159445 -93.84206187 5.02156681 -78.95907211 -4.08842468 C-55.67960113 -16.75657054 -24.0284749 -5.14261795 0 0 Z " fill="#000000" transform="translate(664.7012596130371,760.0220184326172)"/>
<path d="M0 0 C34.98 0 69.96 0 106 0 C106 21.45 106 42.9 106 65 C117.22 65 128.44 65 140 65 C140 92.72 140 120.44 140 149 C128.78 149 117.56 149 106 149 C106.08553341 164.7687452 106.17917185 180.53737571 106.28752708 196.30597687 C106.33758324 203.62811712 106.38402677 210.95024657 106.421875 218.27246094 C106.45488461 224.65679121 106.49476493 231.04103589 106.54279006 237.42527151 C106.56796621 240.80359597 106.58977332 244.18186429 106.60334396 247.56025696 C106.62024768 251.33782171 106.64929367 255.11511396 106.68115234 258.89257812 C106.68331253 260.00460602 106.68547272 261.11663391 106.68769836 262.26235962 C106.67430631 272.46683967 106.67430631 272.46683967 110.9375 281.4375 C118.08004295 286.84851739 127.02925384 284.55146269 136 285 C136 310.41 136 335.82 136 362 C126.98336588 365.38123779 126.98336588 365.38123779 123.51171875 365.9140625 C122.73296387 366.03483154 121.95420898 366.15560059 121.15185547 366.2800293 C120.33861816 366.39386963 119.52538086 366.50770996 118.6875 366.625 C117.82012207 366.74979736 116.95274414 366.87459473 116.05908203 367.00317383 C107.05760947 368.23168489 98.07660588 368.76904311 89 369 C88.26072266 369.02191406 87.52144531 369.04382813 86.75976562 369.06640625 C63.20544329 369.69008645 36.44209254 368.76484032 17.6875 352.75 C3.25921883 338.85353048 -1.57261535 320.17500989 -2.0893116 300.61986923 C-2.1226582 296.6251055 -2.12394111 292.63105154 -2.11352539 288.63623047 C-2.11324281 287.10768129 -2.11340263 285.57913198 -2.1139679 284.05058289 C-2.11425312 279.92939358 -2.10840099 275.80823378 -2.10139394 271.6870513 C-2.09511448 267.36958563 -2.09455298 263.05211918 -2.09336853 258.73464966 C-2.0902687 250.57159575 -2.08207358 242.40855534 -2.07201904 234.24550736 C-2.06081591 224.94678434 -2.05533689 215.64806066 -2.05032361 206.34933257 C-2.03988976 187.23288053 -2.02211356 168.11644185 -2 149 C-11.24 149 -20.48 149 -30 149 C-30 121.28 -30 93.56 -30 65 C-20.1 65 -10.2 65 0 65 C0 43.55 0 22.1 0 0 Z " fill="#000000" transform="translate(1892,403)"/>
<path d="M0 0 C3.11669922 0.86694336 3.11669922 0.86694336 6.3046875 2.08984375 C7.5102832 2.54004883 8.71587891 2.99025391 9.95800781 3.45410156 C10.59436157 3.69584106 11.23071533 3.93758057 11.88635254 4.18664551 C77.96996397 29.1378636 150.17397626 35.87037258 220.1328125 40.421875 C221.2638067 40.49572261 221.2638067 40.49572261 222.41764927 40.57106209 C226.57904346 40.82951234 230.72996525 41.03252236 234.89883423 41.11247253 C249.29068442 41.44112579 262.88128201 43.71981855 276.953125 46.62890625 C279.30941299 47.10304943 281.66600891 47.57566452 284.02288818 48.04685974 C290.19084287 49.28386495 296.35475858 50.53990053 302.5178833 51.80072021 C308.65174047 53.05273047 314.78876929 54.28895307 320.92578125 55.52539062 C323.34690283 56.01335488 325.76801999 56.50134105 328.18913269 56.98934937 C329.37960897 57.22926983 330.57008526 57.46919029 331.79663658 57.71638107 C335.37999903 58.43926264 338.96296425 59.16408565 342.54585266 59.88931274 C370.06110029 65.45343705 397.61550632 70.82172048 425.28543091 75.56445312 C550.14098502 97.08362986 550.14098502 97.08362986 573 128 C579.22749479 138.7527131 581.82593186 147.94337798 579.31640625 160.390625 C575.54972509 173.58182375 568.43259859 184.95926142 556.3125 191.9375 C543.77515136 198.52492047 531.17925408 196.33841511 518.015625 192.80859375 C516.69331072 192.4672242 515.370605 192.12736791 514.04754639 191.78889465 C510.51147084 190.87993062 506.98105674 189.9505889 503.45135498 189.01722717 C499.71951109 188.03444551 495.98256453 187.07145567 492.24609375 186.10644531 C486.11909579 184.52159661 479.99497835 182.92608171 473.87304688 181.32177734 C465.74804587 179.19278518 457.61755721 177.08580736 449.484375 174.98828125 C441.03899706 172.8094719 432.59455242 170.62718681 424.15202332 168.43736267 C410.59001414 164.92038918 397.01700727 161.44870182 383.4375 158 C359.12448304 151.82374231 334.83987025 145.53866567 310.5547142 139.2539711 C288.86129513 133.64006001 267.16644202 128.03227183 245.45703125 122.48046875 C244.59061068 122.25889477 243.7241901 122.03732079 242.83151436 121.80903244 C235.95411678 120.05046527 229.07645141 118.29294621 222.19873428 116.53562927 C195.86483648 109.80665849 169.55380644 102.99468578 143.26101685 96.10687256 C127.25919659 91.91511257 111.24916861 87.77002369 95.1875 83.8125 C11.05442534 63.03666577 11.05442534 63.03666577 -8.078125 34.94921875 C-11.40804469 28.82621222 -12.94261603 23.8977314 -12 17 C-11.88011719 15.90945313 -11.76023438 14.81890625 -11.63671875 13.6953125 C-9.80592616 -0.60078963 -9.80592616 -0.60078963 0 0 Z " fill="#000000" transform="translate(152,455)"/>
<path d="M0 0 C2 3 2 3 1.82617188 4.828125 C0.74828783 7.66171142 -0.67854406 10.13712103 -2.21875 12.75 C-2.54832199 13.31169388 -2.87789398 13.87338776 -3.217453 14.45210266 C-4.30651039 16.30447591 -5.40306068 18.15228506 -6.5 20 C-7.26822112 21.30218822 -8.03620247 22.60451792 -8.80395508 23.90698242 C-14.02800458 32.75175676 -19.34114201 41.54127554 -24.6875 50.3125 C-37.03135083 70.56600282 -48.95322861 91.00610331 -60 112 C-60.6811084 113.29212402 -60.6811084 113.29212402 -61.37597656 114.61035156 C-78.42124998 147.19950126 -92.1206493 181.63866885 -106.43885803 215.48721313 C-129.58351429 270.19788767 -153.8044413 324.53992236 -183.36621094 376.13525391 C-185.03148489 379.05520677 -186.67849274 381.98477049 -188.3203125 384.91796875 C-216.10069022 434.52490925 -216.10069022 434.52490925 -229.828125 439.5625 C-240.13750445 441.63920953 -248.39756988 440.11595735 -257.13671875 434.66796875 C-270.01612125 426.03067845 -284.01478842 415.98521158 -295 405 C-295.63402382 400.28766079 -293.73832915 397.26160036 -291.375 393.375 C-286.99753176 385.89652608 -282.96515892 378.26681604 -279 370.5625 C-271.85847754 356.69476187 -271.85847754 356.69476187 -268.37744141 350.22998047 C-263.17902067 340.56487452 -258.46894388 330.6847045 -253.78173828 320.76367188 C-251.69627466 316.35342668 -249.59556665 311.95046344 -247.49609375 307.546875 C-239.02574283 289.77204478 -230.62195534 271.97234583 -222.41259766 254.07519531 C-218.23329096 244.97693276 -214.014295 235.89706307 -209.78222656 226.82324219 C-208.57088362 224.22602519 -207.3622069 221.62758919 -206.15527344 219.02832031 C-197.77927976 201.00286028 -189.15951907 183.10460078 -180.30361938 165.30969238 C-179.28932148 163.27133394 -178.27684798 161.23206637 -177.26644897 159.19177246 C-170.39384409 145.33023687 -163.07558416 131.79027723 -155.36253357 118.37850952 C-153.50805089 115.14122803 -151.69147801 111.88373646 -149.875 108.625 C-125.10900465 65.42728903 -89.7692063 13.96687754 -39.35693359 -0.40966797 C-9.42662028 -7.90619765 -9.42662028 -7.90619765 0 0 Z " fill="#000000" transform="translate(986,102)"/>
<path d="M0 0 C0.88413574 0.36424072 1.76827148 0.72848145 2.67919922 1.10375977 C14.08255605 5.90193342 23.48791447 11.64194271 32.3125 20.4375 C33.488125 21.57832031 33.488125 21.57832031 34.6875 22.7421875 C40.95909319 29.20447102 44.74250465 36.2167663 48.3125 44.4375 C48.82167969 45.55125 49.33085938 46.665 49.85546875 47.8125 C57.31616926 65.86864912 52.96751318 84.38071623 45.79736328 101.79589844 C34.54858674 128.09585485 18.22881029 151.09312601 -0.6875 172.4375 C-1.95860746 173.91643111 -3.22948699 175.39555819 -4.5 176.875 C-7.19599389 179.94960804 -10.04953722 182.82199702 -12.96875 185.68359375 C-14.64171022 187.39077361 -16.15897326 189.16342833 -17.6875 191 C-22.91741295 197.06622786 -28.95813838 202.35586161 -34.85546875 207.75830078 C-36.48167028 209.24884104 -38.10143154 210.74593279 -39.71875 212.24609375 C-53.19173105 224.65439957 -67.75225624 235.67101553 -82.6159668 246.34106445 C-87.3396109 249.7334235 -92.033806 253.16136688 -96.7043457 256.62646484 C-112.80437108 268.56438613 -129.01189327 279.96826561 -146.34277344 290.06005859 C-148.5488209 291.35603108 -150.73395536 292.68049895 -152.9140625 294.01953125 C-172.2255484 305.80526827 -196.23255402 320.36624739 -219.6875 318.4375 C-223.88007123 316.94015313 -226.54313291 315.38764991 -228.6875 311.4375 C-230.60729604 305.67811187 -229.02459739 300.81572722 -226.6875 295.4375 C-221.20343661 285.49322197 -214.25757293 276.85631558 -206.6875 268.4375 C-206.19846191 267.89206543 -205.70942383 267.34663086 -205.20556641 266.78466797 C-196.45537403 257.07078545 -187.46825771 247.54302487 -177.515625 239.046875 C-175.65812012 237.41163566 -173.92143991 235.70268207 -172.1875 233.9375 C-167.59772421 229.27453872 -162.67188528 225.01967205 -157.5625 220.9375 C-154.75577584 218.4968703 -152.47725369 215.96327957 -150.109375 213.11328125 C-148.10508416 210.75108133 -145.87783024 208.62783024 -143.6875 206.4375 C-132.02094994 194.5007772 -122.72661541 180.66872144 -114.46484375 166.2265625 C-111.08654628 160.34194886 -107.50527663 154.58346847 -103.9375 148.8125 C-102.55713349 146.57561844 -101.1769256 144.33863898 -99.796875 142.1015625 C-99.11302734 140.99329102 -98.42917969 139.88501953 -97.72460938 138.74316406 C-94.53368505 133.56517804 -91.35644024 128.37896463 -88.1875 123.1875 C-87.37974121 121.86951416 -87.37974121 121.86951416 -86.55566406 120.52490234 C-79.02451062 108.17149342 -72.20457168 95.74850489 -66.125 82.625 C-65.43294058 81.14242712 -64.74055044 79.66000859 -64.04785156 78.17773438 C-59.60231041 68.64598806 -55.22576621 59.08278502 -50.8772583 49.50643921 C-49.94203838 47.44749154 -49.00505053 45.38935519 -48.06787109 43.33129883 C-45.40116683 37.46769598 -42.74770818 31.60038952 -40.17514038 25.69476318 C-39.37891328 23.87172847 -38.5728517 22.05299917 -37.76660156 20.234375 C-36.79224687 18.03595978 -35.83319862 15.8306612 -34.89355469 13.6171875 C-31.48569025 5.99400289 -27.30188893 0.60343766 -19.625 -3 C-12.14736486 -4.43188758 -6.83022066 -2.85576678 0 0 Z " fill="#000000" transform="translate(586.6875,864.5625)"/>
<path d="M0 0 C1.58094704 0.23666885 1.58094704 0.23666885 3.1938324 0.4781189 C6.65485775 0.99824598 10.11400779 1.52987061 13.57324219 2.06176758 C16.01664346 2.43159835 18.46014733 2.80075182 20.90374756 3.16926575 C27.33728199 4.14154246 33.76925799 5.12378304 40.20098877 6.10791016 C46.63786824 7.09071943 53.0763567 8.06287085 59.51464844 9.03637695 C70.46761593 10.69390071 81.41757766 12.37019087 92.36553192 14.06049919 C98.1254753 14.94843202 103.88692831 15.822716 109.65321732 16.66847134 C111.87328725 16.99532312 114.09228946 17.3285135 116.31097412 17.66462708 C118.78368144 18.03848343 121.25802448 18.40181342 123.73443604 18.75028992 C133.41342347 20.24542217 143.19238239 23.0377143 150.37011719 30.01879883 C151.14355469 30.75098633 151.91699219 31.48317383 152.71386719 32.23754883 C156.28351879 36.01413675 159.18552786 39.72991844 161.49511719 44.39379883 C161.89988281 45.1955957 162.30464844 45.99739258 162.72167969 46.82348633 C167.08701449 57.06865984 167.8220963 69.91719268 164.30761719 80.58129883 C159.84956548 90.81598093 152.01315051 98.76748073 142.05761719 103.65942383 C129.20084522 108.71029853 115.825828 106.54943042 102.54589844 104.42895508 C101.09377806 104.20590139 99.6414972 103.98389044 98.18907166 103.76283264 C94.31857628 103.17101592 90.45028837 102.56584423 86.58235168 101.95755768 C82.53515475 101.32299012 78.48629768 100.69920988 74.4375 100.07495117 C72.79061534 99.82094589 71.14373425 99.5669175 69.49685669 99.31286621 C68.67836369 99.18661362 67.85987068 99.06036102 67.01657486 98.93028259 C64.52468342 98.54527891 62.03305635 98.15860096 59.54147339 97.77160645 C49.46760734 96.20947842 39.38714232 94.70558671 29.2954464 93.26321983 C27.20077146 92.96336308 25.10641177 92.66140257 23.01216125 92.3585968 C22.33682815 92.26096259 21.66149504 92.16332838 20.96569729 92.06273556 C19.62795704 91.86926866 18.29022712 91.67573037 16.95250797 91.48211765 C13.74520061 91.0188672 10.53712228 90.56255249 7.32754517 90.11526489 C-24.84345334 85.62352948 -24.84345334 85.62352948 -36.12988281 75.51879883 C-37.12761719 74.6931543 -37.12761719 74.6931543 -38.14550781 73.85083008 C-46.08651402 66.74332643 -52.24815338 55.21089609 -53.33105469 44.53564453 C-53.4329346 42.42088725 -53.45913201 40.32339729 -53.44238281 38.20629883 C-53.43674316 37.45864258 -53.43110352 36.71098633 -53.42529297 35.94067383 C-53.18624207 25.01533749 -49.79740209 16.56893544 -42.27832031 8.54223633 C-29.9957872 -2.95734647 -15.70794883 -2.45108201 0 0 Z " fill="#000000" transform="translate(618.1298828125,648.481201171875)"/>
<path d="M0 0 C16.24002192 13.45014473 27.2515671 30.36821038 29.375 51.75 C30.81112105 73.42004077 23.7665402 92.35748048 9.83984375 108.73046875 C-2.13565674 121.51726972 -19.43373364 130.19121847 -37.09765625 131.0859375 C-57.5166376 131.49167104 -75.53646902 126.30462158 -90.54638672 111.95654297 C-105.88342006 96.67201573 -113.5850301 78.43560189 -113.65966797 56.78564453 C-113.31720504 36.67680042 -104.60503499 18.94322449 -90.39331055 4.9831543 C-65.86681714 -17.95975673 -26.94287214 -20.01874241 0 0 Z " fill="#000000" transform="translate(604.625,369.25)"/>
<path d="M0 0 C4.95 0 9.9 0 15 0 C15.69439667 5.67415812 16.38813988 11.34839562 17.08129883 17.02270508 C17.31679979 18.94980994 17.55247391 20.87689365 17.78833008 22.80395508 C18.12888269 25.58669472 18.46879589 28.36951186 18.80859375 31.15234375 C18.91280136 32.00271713 19.01700897 32.85309052 19.12437439 33.72923279 C19.78539336 39.14918906 20.40541722 44.57234275 21 50 C22.64899657 44.67346174 23.66554134 39.43797821 24.47265625 33.92578125 C24.60063095 33.07952682 24.72860565 32.2332724 24.86045837 31.3613739 C25.26546582 28.67904496 25.6643497 25.99585458 26.0625 23.3125 C26.46515498 20.61858656 26.86913686 17.92488491 27.2752533 15.23149109 C27.5267983 13.56126216 27.77620857 11.89070996 28.02320862 10.21980286 C28.54292585 6.75217229 29.14857181 3.40571277 30 0 C33.96 0 37.92 0 42 0 C44.64 16.5 47.28 33 50 50 C51.06820931 47.86358139 51.28380028 46.37457225 51.55664062 44.01269531 C51.70184143 42.78066376 51.70184143 42.78066376 51.84997559 41.52374268 C51.95104614 40.63418884 52.0521167 39.74463501 52.15625 38.828125 C52.2634436 37.91295105 52.37063721 36.9977771 52.4810791 36.05487061 C52.82426339 33.12031384 53.16239399 30.18520332 53.5 27.25 C53.83838799 24.32917739 54.17785829 21.40848759 54.5189209 18.48797607 C54.73102667 16.66953374 54.94146915 14.85089641 55.15002441 13.03204346 C55.24682495 12.19808044 55.34362549 11.36411743 55.44335938 10.50488281 C55.52694702 9.7781134 55.61053467 9.05134399 55.69665527 8.30255127 C56.06255935 5.52514055 56.53945109 2.76329347 57 0 C61.62 0 66.24 0 71 0 C71.09641562 5.43195815 70.79105641 10.62412147 70.00610352 16.00488281 C69.84757904 17.13816513 69.84757904 17.13816513 69.68585205 18.29434204 C69.33888836 20.76472603 68.98405479 23.23390555 68.62890625 25.703125 C68.38425656 27.43082807 68.14003632 29.158592 67.89622498 30.88641357 C67.3859466 34.49442836 66.87203723 38.10189985 66.35522461 41.70898438 C65.69312321 46.33063574 65.03775933 50.95320993 64.3847971 55.57616043 C63.88132907 59.13830311 63.37552127 62.70011015 62.86887932 66.26180267 C62.62643235 67.96657796 62.38443107 69.67141669 62.14288521 71.37631989 C61.80521658 73.75543166 61.46469265 76.13411673 61.12329102 78.51269531 C61.02402817 79.21510345 60.92476532 79.9175116 60.82249451 80.64120483 C59.80464584 87.68735414 59.80464584 87.68735414 59 90 C56.26922124 91.36538938 54.04439633 91.13231826 51 91.125 C49.39125 91.12886719 49.39125 91.12886719 47.75 91.1328125 C45 91 45 91 43 90 C42.43015396 87.67365049 41.99777662 85.42323762 41.625 83.0625 C41.50342529 82.33554932 41.38185059 81.60859863 41.2565918 80.85961914 C40.82451934 78.24170526 40.41056073 75.62137481 40 73 C39.82645996 71.89366211 39.65291992 70.78732422 39.47412109 69.64746094 C38.29575608 62.10137278 37.14006694 54.55196364 36 47 C35.79842285 48.29736084 35.5968457 49.59472168 35.38916016 50.93139648 C34.64149352 55.72792435 33.8821254 60.52253737 33.11914062 65.31665039 C32.79007727 67.39491962 32.46422302 69.47369954 32.14160156 71.55297852 C31.67828401 74.53540758 31.2035922 77.51583128 30.7265625 80.49609375 C30.58376862 81.43150497 30.44097473 82.3669162 30.29385376 83.33067322 C30.15385956 84.19149002 30.01386536 85.05230682 29.86962891 85.93920898 C29.74971588 86.70087875 29.62980286 87.46254852 29.5062561 88.24729919 C29.33919159 88.82569046 29.17212708 89.40408173 29 90 C26.2889923 91.35550385 24.08660831 91.16917207 21.0625 91.1875 C19.47115234 91.20876953 19.47115234 91.20876953 17.84765625 91.23046875 C15 91 15 91 12 89 C11.39560798 86.51521617 10.98470709 84.20419631 10.66552734 81.6796875 C10.50634575 80.5475457 10.50634575 80.5475457 10.34394836 79.39253235 C9.99514811 76.88826558 9.66546161 74.3818701 9.3359375 71.875 C9.0971096 70.13046271 8.85715406 68.38607946 8.61611938 66.6418457 C7.983187 62.03750879 7.3666364 57.43111519 6.75311279 52.82415771 C6.25288691 49.08792659 5.7414883 45.35326789 5.22936058 41.61865234 C0.92999149 10.26233282 0.92999149 10.26233282 0 0 Z " fill="#000000" transform="translate(1520,865)"/>
<path d="M0 0 C4.95 0 9.9 0 15 0 C15.33 8.58 15.66 17.16 16 26 C18.31 25.01 20.62 24.02 23 23 C27.62458456 22.59303656 31.2796294 23.62647451 35.375 25.75 C39.16206351 28.99605444 41.0352185 32.14973607 42 37 C42.08544597 38.7714562 42.11774804 40.54582522 42.11352539 42.31933594 C42.11344986 43.38013367 42.11337433 44.4409314 42.11329651 45.53387451 C42.10813522 46.67253967 42.10297394 47.81120483 42.09765625 48.984375 C42.0962413 50.15510559 42.09482635 51.32583618 42.09336853 52.53204346 C42.0877709 56.27138829 42.0752188 60.01067326 42.0625 63.75 C42.0574847 66.28515539 42.05292184 68.82031171 42.04882812 71.35546875 C42.03780224 77.57033293 42.02106644 83.78516219 42 90 C39.51245214 91.24377393 37.77344699 91.13306235 35 91.125 C34.113125 91.12757813 33.22625 91.13015625 32.3125 91.1328125 C30 91 30 91 28 90 C27.98969254 89.40531418 27.97938507 88.81062836 27.96876526 88.19792175 C27.86072115 82.01749631 27.74612134 75.83721728 27.62768555 69.65698242 C27.58433001 67.34939635 27.5426554 65.04177806 27.50268555 62.73413086 C27.44499817 59.42031133 27.38129908 56.10665403 27.31640625 52.79296875 C27.29969376 51.7585112 27.28298126 50.72405365 27.26576233 49.6582489 C27.24581711 48.6974794 27.22587189 47.7367099 27.20532227 46.74682617 C27.18200584 45.47774666 27.18200584 45.47774666 27.15821838 44.18302917 C27.07725897 41.82040513 27.07725897 41.82040513 26 39 C22.64541845 38.23477199 22.64541845 38.23477199 19 38 C17.19016082 39.10880319 17.19016082 39.10880319 16 41 C15.52900985 43.27438288 15.52900985 43.27438288 15.56762695 45.83862305 C15.53793571 47.30980843 15.53793571 47.30980843 15.50764465 48.81071472 C15.50125473 49.86704605 15.49486481 50.92337738 15.48828125 52.01171875 C15.47033005 53.09508011 15.45237885 54.17844147 15.43388367 55.29463196 C15.37965015 58.75888157 15.34584256 62.22299238 15.3125 65.6875 C15.27933851 68.03452458 15.24484996 70.38153081 15.20898438 72.72851562 C15.12391626 78.48555262 15.05562168 84.2426073 15 90 C12.39080172 91.30459914 10.41057385 91.1326594 7.5 91.125 C6.5203125 91.12757813 5.540625 91.13015625 4.53125 91.1328125 C2 91 2 91 0 90 C0 60.3 0 30.6 0 0 Z " fill="#000000" transform="translate(2196,865)"/>
<path d="M0 0 C4.95 0 9.9 0 15 0 C15.33 8.58 15.66 17.16 16 26 C18.31 25.01 20.62 24.02 23 23 C27.62458456 22.59303656 31.2796294 23.62647451 35.375 25.75 C39.16206351 28.99605444 41.0352185 32.14973607 42 37 C42.08544597 38.7714562 42.11774804 40.54582522 42.11352539 42.31933594 C42.11344986 43.38013367 42.11337433 44.4409314 42.11329651 45.53387451 C42.10813522 46.67253967 42.10297394 47.81120483 42.09765625 48.984375 C42.0962413 50.15510559 42.09482635 51.32583618 42.09336853 52.53204346 C42.0877709 56.27138829 42.0752188 60.01067326 42.0625 63.75 C42.0574847 66.28515539 42.05292184 68.82031171 42.04882812 71.35546875 C42.03780224 77.57033293 42.02106644 83.78516219 42 90 C39.51245214 91.24377393 37.77344699 91.13306235 35 91.125 C34.113125 91.12757813 33.22625 91.13015625 32.3125 91.1328125 C30 91 30 91 28 90 C27.98969254 89.40531418 27.97938507 88.81062836 27.96876526 88.19792175 C27.86072115 82.01749631 27.74612134 75.83721728 27.62768555 69.65698242 C27.58433001 67.34939635 27.5426554 65.04177806 27.50268555 62.73413086 C27.44499817 59.42031133 27.38129908 56.10665403 27.31640625 52.79296875 C27.29969376 51.7585112 27.28298126 50.72405365 27.26576233 49.6582489 C27.24581711 48.6974794 27.22587189 47.7367099 27.20532227 46.74682617 C27.18200584 45.47774666 27.18200584 45.47774666 27.15821838 44.18302917 C27.07725897 41.82040513 27.07725897 41.82040513 26 39 C22.64541845 38.23477199 22.64541845 38.23477199 19 38 C17.19016082 39.10880319 17.19016082 39.10880319 16 41 C15.52900985 43.27438288 15.52900985 43.27438288 15.56762695 45.83862305 C15.53793571 47.30980843 15.53793571 47.30980843 15.50764465 48.81071472 C15.50125473 49.86704605 15.49486481 50.92337738 15.48828125 52.01171875 C15.47033005 53.09508011 15.45237885 54.17844147 15.43388367 55.29463196 C15.37965015 58.75888157 15.34584256 62.22299238 15.3125 65.6875 C15.27933851 68.03452458 15.24484996 70.38153081 15.20898438 72.72851562 C15.12391626 78.48555262 15.05562168 84.2426073 15 90 C12.39080172 91.30459914 10.41057385 91.1326594 7.5 91.125 C6.5203125 91.12757813 5.540625 91.13015625 4.53125 91.1328125 C2 91 2 91 0 90 C0 60.3 0 30.6 0 0 Z " fill="#000000" transform="translate(1593,865)"/>
<path d="M0 0 C5.72105989 3.42780804 8.77272737 7.9285718 10.5 14.375 C10.75078639 19.05968983 10.5886078 23.6787865 10.5 28.375 C5.88 28.375 1.26 28.375 -3.5 28.375 C-3.92317708 25.0546875 -4.34635417 21.734375 -4.76953125 18.4140625 C-5.20699334 15.07967916 -5.20699334 15.07967916 -8.5 13.375 C-12.07176115 13.45667489 -12.07176115 13.45667489 -15.5 14.375 C-17.72074511 17.70611767 -17.74878056 18.74430688 -17.74291992 22.625 C-17.74599655 23.69621094 -17.74907318 24.76742187 -17.75224304 25.87109375 C-17.74505753 27.02738281 -17.73787201 28.18367187 -17.73046875 29.375 C-17.73001053 30.56222656 -17.72955231 31.74945312 -17.7290802 32.97265625 C-17.72605733 35.48438516 -17.71817001 37.99611218 -17.70581055 40.5078125 C-17.68757366 44.35944233 -17.68530073 48.21083154 -17.68554688 52.0625 C-17.68063094 54.50000209 -17.67480229 56.93750254 -17.66796875 59.375 C-17.66685593 60.53128906 -17.6657431 61.68757812 -17.66459656 62.87890625 C-17.65821671 63.95011719 -17.65183685 65.02132812 -17.64526367 66.125 C-17.64145187 67.06859375 -17.63764008 68.0121875 -17.63371277 68.984375 C-17.59676111 71.522642 -17.59676111 71.522642 -16.5 74.375 C-13.07067929 76.08966036 -9.28283935 75.42904056 -5.5 75.375 C-4.84 70.755 -4.18 66.135 -3.5 61.375 C1.12 61.375 5.74 61.375 10.5 61.375 C11.02849418 78.28681364 11.02849418 78.28681364 5.80078125 84.34375 C0.65044267 89.28159917 -3.84960098 91.33042749 -10.9453125 91.3984375 C-16.70313265 91.06388526 -21.86698469 89.94520779 -26.5 86.375 C-33.55791669 78.43708861 -33.80686797 68.25503041 -33.765625 58.12890625 C-33.76753845 57.07775131 -33.7694519 56.02659637 -33.77142334 54.94358826 C-33.77277728 52.73249063 -33.76913645 50.52138484 -33.76074219 48.31030273 C-33.75004244 44.95082494 -33.76065921 41.59188313 -33.7734375 38.23242188 C-33.77211556 36.0729155 -33.76955244 33.91340946 -33.765625 31.75390625 C-33.76967346 30.76193741 -33.77372192 29.76996857 -33.77789307 28.74794006 C-33.71959004 19.95102892 -33.33459407 11.37651288 -27.5 4.375 C-20.09926489 -2.45644779 -9.32987582 -4.26508609 0 0 Z " fill="#000000" transform="translate(1830.5,865.625)"/>
<path d="M0 0 C4.37058667 3.68245175 6.56467493 7.47730559 8 13 C8.27182063 16.91561297 8.232653 20.81881224 8.1953125 24.7421875 C8.1924826 25.86569611 8.18965271 26.98920471 8.18673706 28.14675903 C8.17557303 31.72294927 8.15047501 35.2988859 8.125 38.875 C8.11496533 41.30468387 8.10584033 43.73437169 8.09765625 46.1640625 C8.07564604 52.10946102 8.04220589 58.05471239 8 64 C5.52621876 65.23689062 3.82084683 65.13310087 1.0625 65.125 C0.18722656 65.12757813 -0.68804688 65.13015625 -1.58984375 65.1328125 C-4 65 -4 65 -7 64 C-8.2684375 64.495 -8.2684375 64.495 -9.5625 65 C-15.50335664 66.72824921 -20.85999679 66.07000161 -26.375 63.3125 C-31.24351887 59.02356671 -33.16380089 55.62099084 -33.875 49.1875 C-34.28701246 41.07788888 -33.34697251 34.38666161 -28 28 C-22.42538795 23.70290321 -18.66982366 22.86228453 -11.75 22.9375 C-10.67234375 22.94652344 -9.5946875 22.95554687 -8.484375 22.96484375 C-7.66453125 22.97644531 -6.8446875 22.98804688 -6 23 C-6.14107747 21.54119891 -6.28802415 20.08296449 -6.4375 18.625 C-6.51871094 17.81289063 -6.59992188 17.00078125 -6.68359375 16.1640625 C-6.89090114 13.95727195 -6.89090114 13.95727195 -8 12 C-10.64 12 -13.28 12 -16 12 C-16.99 14.64 -17.98 17.28 -19 20 C-23.29 20 -27.58 20 -32 20 C-33.33294714 14.66821146 -32.73147573 10.02031856 -29.9609375 5.1875 C-22.66214318 -4.23029912 -10.13552051 -5.23361423 0 0 Z M-17.76171875 37.32421875 C-20.45401714 40.96773928 -20.38302176 44.63355199 -20 49 C-18.60314994 51.6469872 -18.60314994 51.6469872 -16 53 C-12.31633075 53 -9.9915471 52.97335358 -7.296875 50.328125 C-5.61334876 47.30589114 -5.70042947 45.18682948 -5.8125 41.75 C-5.83957031 40.67234375 -5.86664062 39.5946875 -5.89453125 38.484375 C-5.92933594 37.66453125 -5.96414063 36.8446875 -6 36 C-7.60332791 35.91878076 -9.20784026 35.86070866 -10.8125 35.8125 C-11.70582031 35.77769531 -12.59914063 35.74289062 -13.51953125 35.70703125 C-16.03202016 35.7929595 -16.03202016 35.7929595 -17.76171875 37.32421875 Z " fill="#000000" transform="translate(1964,891)"/>
<path d="M0 0 C5.17911292 3.7289613 7.40633017 7.15737561 9.125 13.25 C9.35205078 16.22607422 9.35205078 16.22607422 9.3203125 19.3046875 C9.31531738 20.30483887 9.31032227 21.30499023 9.30517578 22.33544922 C9.28696777 23.58600098 9.26875977 24.83655273 9.25 26.125 C9.20875 30.12625 9.1675 34.1275 9.125 38.25 C0.545 38.58 -8.035 38.91 -16.875 39.25 C-16.545 42.55 -16.215 45.85 -15.875 49.25 C-13.02673402 51.61692966 -13.02673402 51.61692966 -9.6875 50.875 C-8.759375 50.66875 -7.83125 50.4625 -6.875 50.25 C-6.215 47.94 -5.555 45.63 -4.875 43.25 C-0.255 43.25 4.365 43.25 9.125 43.25 C9.53903812 49.87460988 9.27385793 54.85530938 5.125 60.25 C0.41176281 64.71925785 -4.74218042 66.09175869 -11.1328125 66.375 C-16.34999823 66.13717957 -20.72593465 65.16386721 -24.6953125 61.62890625 C-32.50309086 52.85930012 -32.05665679 43.72073551 -32.0625 32.4375 C-32.07474609 31.20451172 -32.08699219 29.97152344 -32.09960938 28.70117188 C-32.11458583 19.35087273 -32.03464511 10.817564 -25.875 3.25 C-18.81710494 -3.61714114 -8.6483892 -4.56545867 0 0 Z M-15.5546875 12.390625 C-17.34420338 14.91077163 -17.38225407 16.87331926 -17.5625 19.9375 C-17.665625 21.690625 -17.76875 23.44375 -17.875 25.25 C-13.585 25.25 -9.295 25.25 -4.875 25.25 C-4.83375 23.8475 -4.7925 22.445 -4.75 21 C-4.72679687 20.21109375 -4.70359375 19.4221875 -4.6796875 18.609375 C-4.89826335 15.96897869 -5.37855542 14.43413109 -6.875 12.25 C-11.37250245 10.87471437 -11.37250245 10.87471437 -15.5546875 12.390625 Z " fill="#000000" transform="translate(1673.875,890.75)"/>
<path d="M0 0 C4.12776581 2.72869134 6.41296448 6.95107917 8.125 11.5 C9.23261419 17.12806458 9.27619565 22.66434919 9.25 28.375 C9.25580078 29.674375 9.25580078 29.674375 9.26171875 31 C9.26042969 31.82242188 9.25914062 32.64484375 9.2578125 33.4921875 C9.25668457 34.23839355 9.25555664 34.98459961 9.25439453 35.75341797 C9.125 37.5 9.125 37.5 8.125 38.5 C6.19832493 38.58748207 4.26848139 38.60697334 2.33984375 38.59765625 C0.58510742 38.59282227 0.58510742 38.59282227 -1.20507812 38.58789062 C-2.43677734 38.57951172 -3.66847656 38.57113281 -4.9375 38.5625 C-6.79084961 38.55573242 -6.79084961 38.55573242 -8.68164062 38.54882812 C-11.74614117 38.53699608 -14.81054721 38.52051173 -17.875 38.5 C-17.81476735 40.10520004 -17.72591401 41.70934327 -17.625 43.3125 C-17.55539063 44.65248047 -17.55539063 44.65248047 -17.484375 46.01953125 C-17.07233912 48.62100897 -17.07233912 48.62100897 -15.03125 50.34375 C-12.03367018 51.95114787 -10.09324046 51.30456012 -6.875 50.5 C-6.215 48.19 -5.555 45.88 -4.875 43.5 C-0.255 43.5 4.365 43.5 9.125 43.5 C8.71237565 51.95879912 8.01506611 56.60993389 1.875 62.75 C-3.94545429 66.45392546 -9.71244513 67.01296842 -16.41796875 66.0859375 C-21.44786792 64.88643849 -25.12031435 62.76818661 -28.30908203 58.64624023 C-32.69323028 50.95488607 -32.6078061 43.52636857 -32.47192383 34.9140625 C-32.43755732 32.50401937 -32.45132186 30.09764611 -32.47070312 27.6875 C-32.46166142 18.34434039 -32.31482384 9.30980916 -25.625 2.0625 C-17.31976244 -2.65638498 -9.05930011 -4.28293709 0 0 Z M-16.1875 12.875 C-18.84238248 17.0048172 -18.12992748 20.65637789 -17.875 25.5 C-13.915 25.5 -9.955 25.5 -5.875 25.5 C-5.813125 23.746875 -5.75125 21.99375 -5.6875 20.1875 C-5.65269531 19.20136719 -5.61789063 18.21523438 -5.58203125 17.19921875 C-5.64595528 14.48564996 -5.64595528 14.48564996 -7.234375 12.671875 C-8.88011891 11.31946275 -8.88011891 11.31946275 -11.3125 11.0625 C-13.94459982 11.35403412 -13.94459982 11.35403412 -16.1875 12.875 Z " fill="#000000" transform="translate(2383.875,890.5)"/>
<path d="M0 0 C4.85641373 4.98766816 6.26601276 10.19676202 6.1953125 17.0546875 C6.19031738 18.05483887 6.18532227 19.05499023 6.18017578 20.08544922 C6.16196777 21.33600098 6.14375977 22.58655273 6.125 23.875 C6.08375 27.87625 6.0425 31.8775 6 36 C-2.91 36 -11.82 36 -21 36 C-20.01 41.445 -20.01 41.445 -19 47 C-16.15173402 49.36692966 -16.15173402 49.36692966 -12.8125 48.625 C-11.884375 48.41875 -10.95625 48.2125 -10 48 C-9.34 45.69 -8.68 43.38 -8 41 C-3.38 41 1.24 41 6 41 C6.41403812 47.62460988 6.14885793 52.60530938 2 58 C-2.71306567 62.46909521 -7.86979677 63.84702794 -14.26171875 64.12109375 C-20.84964319 63.829759 -25.34757094 62.12009579 -29.9375 57.3125 C-36.47257739 49.85046127 -35.33517805 39.40485726 -35.3125 30.125 C-35.32861328 28.81402344 -35.34472656 27.50304687 -35.36132812 26.15234375 C-35.3662324 16.37321295 -34.89060705 6.80905612 -27.7890625 -0.58984375 C-19.34618804 -7.24459851 -8.32913285 -5.99697565 0 0 Z M-18.875 10.1875 C-21.41976085 14.28739249 -21.09119493 18.25786364 -21 23 C-16.71 23 -12.42 23 -8 23 C-7.95875 21.5975 -7.9175 20.195 -7.875 18.75 C-7.85179687 17.96109375 -7.82859375 17.1721875 -7.8046875 16.359375 C-8.02326335 13.71897869 -8.50355542 12.18413109 -10 10 C-14.58938278 8.64502388 -14.58938278 8.64502388 -18.875 10.1875 Z " fill="#000000" transform="translate(1918,893)"/>
<path d="M0 0 C4.25861515 3.96150247 6.32980023 8.56036343 7.0345459 14.3520813 C7.14793748 17.56657752 7.13778496 20.75673687 7.078125 23.97265625 C7.07246521 25.1363121 7.06680542 26.29996796 7.06097412 27.49888611 C7.03872266 31.18718966 6.98854507 34.87449391 6.9375 38.5625 C6.91742059 41.07485569 6.89917235 43.58722672 6.8828125 46.09960938 C6.83889465 52.23340939 6.77209485 58.36663327 6.6875 64.5 C4.19995214 65.74377393 2.46094699 65.63306235 -0.3125 65.625 C-1.199375 65.62757813 -2.08625 65.63015625 -3 65.6328125 C-5.3125 65.5 -5.3125 65.5 -7.3125 64.5 C-7.32280746 63.93703217 -7.33311493 63.37406433 -7.34373474 62.79403687 C-7.45212659 56.9213374 -7.56669679 51.04878126 -7.68481445 45.17626953 C-7.72805877 42.98619595 -7.76974105 40.79609093 -7.80981445 38.60595703 C-7.86777197 35.45335427 -7.93139255 32.30090819 -7.99609375 29.1484375 C-8.01280624 28.17321136 -8.02951874 27.19798523 -8.04673767 26.19320679 C-8.14773682 21.53194695 -8.36926812 17.08524819 -9.3125 12.5 C-14.63420494 12.20437633 -14.63420494 12.20437633 -19.3125 14.5 C-19.78848726 16.714978 -19.78848726 16.714978 -19.74487305 19.31689453 C-19.76466721 20.31778107 -19.78446136 21.3186676 -19.80485535 22.34988403 C-19.81444023 23.97493362 -19.81444023 23.97493362 -19.82421875 25.6328125 C-19.84216995 26.73978485 -19.86012115 27.8467572 -19.87861633 28.98727417 C-19.93292605 32.53314368 -19.96668169 36.07887703 -20 39.625 C-20.03315477 42.02475862 -20.06764268 44.42449922 -20.10351562 46.82421875 C-20.18866422 52.71602373 -20.25692624 58.6078459 -20.3125 64.5 C-23.27599281 65.48783094 -25.2837663 65.63410525 -28.375 65.625 C-29.69177734 65.62886719 -29.69177734 65.62886719 -31.03515625 65.6328125 C-33.3125 65.5 -33.3125 65.5 -35.3125 64.5 C-35.33562659 56.04232666 -35.3534167 47.58466644 -35.36431217 39.12696934 C-35.36954031 35.20011342 -35.37663669 31.27327906 -35.38793945 27.34643555 C-35.3987708 23.55985743 -35.40477736 19.7733001 -35.40737724 15.98670769 C-35.40923105 14.53895681 -35.41285081 13.09120712 -35.41823006 11.64346504 C-35.42544367 9.62242865 -35.42590808 7.60137152 -35.42602539 5.58032227 C-35.428246 4.42782486 -35.43046661 3.27532745 -35.43275452 2.08790588 C-35.3125 -0.5 -35.3125 -0.5 -34.3125 -1.5 C-32.16942104 -1.62537741 -30.02171114 -1.67574364 -27.875 -1.6875 C-26.11349609 -1.70876953 -26.11349609 -1.70876953 -24.31640625 -1.73046875 C-21.3125 -1.5 -21.3125 -1.5 -19.3125 0.5 C-18.343125 -0.015625 -17.37375 -0.53125 -16.375 -1.0625 C-10.63090994 -3.50431966 -5.55480575 -2.51538374 0 0 Z " fill="#000000" transform="translate(2116.3125,890.5)"/>
<path d="M0 0 C4.39555986 3.10052854 6.41543218 7.57259716 8.125 12.5625 C8.68790834 17.13544379 8.60277449 21.58965134 8.4375 26.1875 C8.334375 30.27125 8.23125 34.355 8.125 38.5625 C-0.455 38.5625 -9.035 38.5625 -17.875 38.5625 C-17.35223189 47.49790579 -17.35223189 47.49790579 -15.875 51.5625 C-11.42 51.0675 -11.42 51.0675 -6.875 50.5625 C-6.215 48.2525 -5.555 45.9425 -4.875 43.5625 C-0.255 43.5625 4.365 43.5625 9.125 43.5625 C8.60068229 51.32240212 8.07109037 56.5478959 2.4375 62.3125 C-3.23034482 66.62953168 -9.56984488 67.07622845 -16.4140625 66.16015625 C-21.24438415 64.98707814 -25.19894359 62.77780935 -28.22265625 58.78125 C-31.40271231 53.40137022 -32.05239297 48.85065206 -32.11328125 42.74609375 C-32.121353 41.97499771 -32.12942474 41.20390167 -32.13774109 40.40943909 C-32.15156944 38.77452837 -32.16229719 37.13958893 -32.17016602 35.50463867 C-32.18163587 33.84732491 -32.20200782 32.19004663 -32.23168945 30.53295898 C-32.60487777 9.68653426 -32.60487777 9.68653426 -25.625 2.125 C-17.30658477 -2.60137229 -9.1033707 -4.16494084 0 0 Z M-16.875 13.5625 C-17.83570434 16.44461302 -17.98081883 18.26100044 -17.9375 21.25 C-17.916875 22.673125 -17.89625 24.09625 -17.875 25.5625 C-13.915 25.5625 -9.955 25.5625 -5.875 25.5625 C-5.7821875 23.21125 -5.7821875 23.21125 -5.6875 20.8125 C-5.65269531 19.93078125 -5.61789062 19.0490625 -5.58203125 18.140625 C-5.93058628 15.07334072 -6.74174388 13.76162864 -8.875 11.5625 C-12.6154533 11.001432 -13.65356724 11.41487816 -16.875 13.5625 Z " fill="#000000" transform="translate(1757.875,890.4375)"/>
<path d="M0 0 C5.73326511 5.03408644 8.30256883 9.51115011 8.8371582 17.20068359 C8.85693586 18.68316188 8.86507512 20.16582838 8.86328125 21.6484375 C8.86756638 22.44222809 8.8718515 23.23601868 8.87626648 24.05386353 C8.88198615 25.72632904 8.88252754 27.39881943 8.87817383 29.07128906 C8.87501807 31.61046452 8.89848702 34.14846861 8.92382812 36.6875 C8.92610201 38.32031105 8.9268042 39.95312519 8.92578125 41.5859375 C8.934991 42.33515472 8.94420074 43.08437195 8.95368958 43.85629272 C8.90174895 49.86687689 7.77658502 55.41114842 3.984375 60.2734375 C-1.51490245 64.71911507 -6.27029243 66.54787609 -13.4375 66.125 C-19.45983291 65.33788658 -23.35247678 63.27867124 -27.75 59 C-32.38707 51.44329333 -31.7787422 42.66113722 -31.75317383 34.09667969 C-31.75001695 31.88686603 -31.77351743 29.67839861 -31.79882812 27.46875 C-31.88264129 9.36153914 -31.88264129 9.36153914 -26.82446289 3.32495117 C-19.46997911 -3.75092875 -8.94035763 -4.55145479 0 0 Z M-16.4375 14.25 C-16.91894486 17.07885626 -17.07027005 19.30414517 -16.99609375 22.12890625 C-16.99376236 22.89677963 -16.99143097 23.66465302 -16.98902893 24.45579529 C-16.97929309 26.07733282 -16.95750915 27.69883638 -16.92456055 29.32006836 C-16.87510961 31.80698755 -16.86307889 34.29193028 -16.85742188 36.77929688 C-16.84333738 38.35418779 -16.8271335 39.92906148 -16.80859375 41.50390625 C-16.80323105 42.24975479 -16.79786835 42.99560333 -16.79234314 43.76405334 C-16.82548242 47.96488655 -16.82548242 47.96488655 -14.4375 51.25 C-10.85406024 51.41677282 -10.85406024 51.41677282 -7.4375 51.25 C-5.13654882 47.59863953 -5.17954024 44.47405066 -5.171875 40.21875 C-5.16900482 39.20935364 -5.16900482 39.20935364 -5.16607666 38.17956543 C-5.16471936 36.76081975 -5.16838397 35.34206146 -5.17675781 33.92333984 C-5.1874644 31.75720201 -5.17684773 29.59189342 -5.1640625 27.42578125 C-5.16538418 26.04426901 -5.16794674 24.66275729 -5.171875 23.28125 C-5.17413086 22.02892578 -5.17638672 20.77660156 -5.17871094 19.48632812 C-5.42178495 16.44652704 -5.74533902 14.74831068 -7.4375 12.25 C-11.15176962 10.32882606 -13.39220774 11.71499493 -16.4375 14.25 Z " fill="#000000" transform="translate(2065.4375,890.75)"/>
<path d="M0 0 C3.87611238 3.18160314 5.91044001 7.14650552 7 12 C7 14.31 7 16.62 7 19 C2.38 19 -2.24 19 -7 19 C-7.66 16.69 -8.32 14.38 -9 12 C-11.31 12 -13.62 12 -16 12 C-17.14352916 14.28705831 -17.10334439 15.59264762 -17.0625 18.125 C-17.041875 19.40375 -17.02125 20.6825 -17 22 C-16.39414063 22.15855469 -15.78828125 22.31710937 -15.1640625 22.48046875 C2.22813899 27.32352793 2.22813899 27.32352793 7 35 C8.54911821 38.09823641 8.22564397 41.35233391 8.25 44.75 C8.270625 45.45382812 8.29125 46.15765625 8.3125 46.8828125 C8.35909302 53.14957434 6.77804204 57.18060815 2.3125 61.75 C-3.68341448 66.30571934 -10.18524345 66.39639067 -17.3828125 65.5390625 C-22.38331652 64.50910794 -25.63696567 62.32619557 -29.3125 58.75 C-32.2393619 53.98029912 -33.50984768 48.60832451 -33 43 C-32 42 -32 42 -29.05859375 41.90234375 C-27.86363281 41.91394531 -26.66867188 41.92554688 -25.4375 41.9375 C-23.64119141 41.95103516 -23.64119141 41.95103516 -21.80859375 41.96484375 C-20.88175781 41.97644531 -19.95492187 41.98804688 -19 42 C-18.01 44.97 -17.02 47.94 -16 51 C-14.72125 51.061875 -13.4425 51.12375 -12.125 51.1875 C-11.40570312 51.22230469 -10.68640625 51.25710938 -9.9453125 51.29296875 C-9.30335938 51.19628906 -8.66140625 51.09960938 -8 51 C-5.84172838 47.76259258 -5.26679669 46.75766697 -6 43 C-9.37577677 40.06840438 -12.85191823 38.61035803 -17 37 C-23.5873584 34.42835858 -28.34550302 31.98900788 -31.30859375 25.34375 C-32.9645912 19.73019934 -32.89525229 13.6191569 -30.8125 8.125 C-27.57343597 2.54040685 -24.11380339 -0.50775123 -18.03515625 -2.49609375 C-11.73126449 -4.05694219 -5.72920327 -2.86997612 0 0 Z " fill="#000000" transform="translate(2430,891)"/>
<path d="M0 0 C0.79719955 0.00222061 1.59439911 0.00444122 2.41575623 0.00672913 C3.31661453 0.00680466 4.21747284 0.00688019 5.14562988 0.00695801 C6.12478867 0.01211929 7.10394745 0.01728058 8.11277771 0.02259827 C9.11018478 0.02401321 10.10759186 0.02542816 11.13522339 0.02688599 C14.3348027 0.03250337 17.53431315 0.04505881 20.73387146 0.05775452 C22.89728191 0.06276728 25.06069345 0.06733057 27.22410583 0.07142639 C32.53988775 0.08247845 37.85561792 0.09975473 43.17137146 0.12025452 C43.17137146 4.74025452 43.17137146 9.36025452 43.17137146 14.12025452 C38.22137146 14.12025452 33.27137146 14.12025452 28.17137146 14.12025452 C28.17137146 39.20025452 28.17137146 64.28025452 28.17137146 90.12025452 C25.56217318 91.42485366 23.58194531 91.25291392 20.67137146 91.24525452 C19.69168396 91.24783264 18.71199646 91.25041077 17.70262146 91.25306702 C15.17137146 91.12025452 15.17137146 91.12025452 13.17137146 90.12025452 C13.17137146 65.04025452 13.17137146 39.96025452 13.17137146 14.12025452 C8.22137146 14.12025452 3.27137146 14.12025452 -1.82862854 14.12025452 C-2.82862854 13.12025452 -2.82862854 13.12025452 -2.96144104 10.43275452 C-2.95886292 9.33962952 -2.95628479 8.24650452 -2.95362854 7.12025452 C-2.95620667 6.02712952 -2.95878479 4.93400452 -2.96144104 3.80775452 C-2.78230928 0.1829706 -2.78230928 0.1829706 0 0 Z " fill="#000000" transform="translate(2150.828628540039,864.8797454833984)"/>
<path d="M0 0 C4.29 0 8.58 0 13 0 C16.08934488 7.45245042 17.84973032 15.16253698 19.6875 23 C20.01059431 24.36078957 20.33415827 25.72146772 20.65820312 27.08203125 C21.44341607 30.38695739 22.22387067 33.69293107 23 37 C23.23187012 35.98574951 23.46374023 34.97149902 23.70263672 33.92651367 C24.56488758 30.1623647 25.43526524 26.40013403 26.30810547 22.63842773 C26.68467443 21.01035889 27.05904019 19.38177882 27.43115234 17.75268555 C27.96653499 15.41056492 28.50982519 13.07039974 29.0546875 10.73046875 C29.21935516 10.00224411 29.38402283 9.27401947 29.55368042 8.52372742 C30.33919961 5.18323156 31.07387499 2.88918752 33 0 C36.0390625 -0.29296875 36.0390625 -0.29296875 39.625 -0.1875 C40.81351563 -0.16042969 42.00203125 -0.13335938 43.2265625 -0.10546875 C44.14179688 -0.07066406 45.05703125 -0.03585937 46 0 C45.39792647 7.54034904 43.71796969 14.5182979 41.7265625 21.8046875 C41.23994644 23.60608688 41.23994644 23.60608688 40.74349976 25.44387817 C39.8851261 28.61037875 39.01986849 31.77490702 38.152771 34.93902588 C37.62332024 36.88116173 37.10052711 38.8249651 36.58007812 40.76953125 C35.57680242 44.51332378 34.55993175 48.25315897 33.5390625 51.9921875 C33.22957672 53.15152802 32.92009094 54.31086853 32.60122681 55.50534058 C32.30436981 56.57720612 32.00751282 57.64907166 31.70166016 58.75341797 C31.44486481 59.69667938 31.18806946 60.6399408 30.92349243 61.61178589 C29.95662878 64.11216092 29.09083227 65.35079734 27 67 C25.0625 67.36328125 25.0625 67.36328125 23 67.3125 C21.9790625 67.30669922 21.9790625 67.30669922 20.9375 67.30078125 C19 67 19 67 16 65 C14.98712158 62.42591858 14.98712158 62.42591858 14.08300781 59.12915039 C13.73965393 57.89769791 13.39630005 56.66624542 13.0425415 55.3974762 C12.67890853 54.04766924 12.31578185 52.69772579 11.953125 51.34765625 C11.57462458 49.96743992 11.19536194 48.58743241 10.81536865 47.20762634 C10.0215146 44.31522397 9.23565413 41.42080288 8.45556641 38.5246582 C7.45470075 34.81066011 6.43623623 31.10177225 5.41200638 27.39415836 C4.62669856 24.54519274 3.84973954 21.6940038 3.07540131 18.84203911 C2.70294189 17.47344708 2.32811785 16.10549634 1.95090485 14.73820686 C1.42542437 12.82782085 0.91212677 10.9140963 0.39941406 9.00024414 C0.10423889 7.91151505 -0.19093628 6.82278595 -0.49505615 5.70106506 C-1 3 -1 3 0 0 Z " fill="#000000" transform="translate(2304,889)"/>
<path d="M0 0 C4.62 0 9.24 0 14 0 C14 5.61 14 11.22 14 17 C17.3 17 20.6 17 24 17 C24 21.62 24 26.24 24 31 C20.7 31 17.4 31 14 31 C14.495 50.305 14.495 50.305 15 70 C17.97 70 20.94 70 24 70 C24 74.62 24 79.24 24 84 C10.52665245 84.45415778 10.52665245 84.45415778 5 81 C1.64959926 76.76791486 -0.13011937 73.28879663 -0.11352539 67.89575195 C-0.11341209 66.6648156 -0.11341209 66.6648156 -0.11329651 65.40901184 C-0.10813522 64.52767075 -0.10297394 63.64632965 -0.09765625 62.73828125 C-0.0962413 61.83248825 -0.09482635 60.92669525 -0.09336853 59.99345398 C-0.08777001 57.09976909 -0.07521781 54.20616151 -0.0625 51.3125 C-0.05748481 49.35091258 -0.05292193 47.38932394 -0.04882812 45.42773438 C-0.03780107 40.61845979 -0.02053747 35.809243 0 31 C-1.98 31 -3.96 31 -6 31 C-6 26.38 -6 21.76 -6 17 C-4.02 17 -2.04 17 0 17 C0 11.39 0 5.78 0 0 Z " fill="#000000" transform="translate(1982,872)"/>
<path d="M0 0 C0.02685938 2.14576637 0.04633088 4.29162645 0.0625 6.4375 C0.07410156 7.63246094 0.08570313 8.82742188 0.09765625 10.05859375 C0 13 0 13 -1 14 C-4.03186062 14.49776816 -7.07145266 14.90103589 -10.1171875 15.3046875 C-13.1383766 16.03337538 -14.19651252 16.52766949 -16 19 C-16.92056715 21.76170144 -17.14800149 23.52178855 -17.20532227 26.37963867 C-17.22526749 27.26032516 -17.24521271 28.14101166 -17.26576233 29.04838562 C-17.29083107 30.46882927 -17.29083107 30.46882927 -17.31640625 31.91796875 C-17.33718735 32.89034988 -17.35796844 33.86273102 -17.37937927 34.86457825 C-17.44478748 37.97214665 -17.50371929 41.07979985 -17.5625 44.1875 C-17.60569351 46.29362858 -17.64930807 48.39974856 -17.69335938 50.50585938 C-17.80045999 55.67048591 -17.90175219 60.83519778 -18 66 C-20.60919828 67.30459914 -22.58942615 67.1326594 -25.5 67.125 C-26.4796875 67.12757813 -27.459375 67.13015625 -28.46875 67.1328125 C-31 67 -31 67 -33 66 C-33.02312659 57.54232666 -33.0409167 49.08466644 -33.05181217 40.62696934 C-33.05704031 36.70011342 -33.06413669 32.77327906 -33.07543945 28.84643555 C-33.0862708 25.05985743 -33.09227736 21.2733001 -33.09487724 17.48670769 C-33.09673105 16.03895681 -33.10035081 14.59120712 -33.10573006 13.14346504 C-33.11294367 11.12242865 -33.11340808 9.10137152 -33.11352539 7.08032227 C-33.115746 5.92782486 -33.11796661 4.77532745 -33.12025452 3.58790588 C-33 1 -33 1 -32 0 C-29.81360547 -0.07258946 -27.62499611 -0.08373783 -25.4375 -0.0625 C-23.64119141 -0.04896484 -23.64119141 -0.04896484 -21.80859375 -0.03515625 C-20.88175781 -0.02355469 -19.95492188 -0.01195312 -19 0 C-18.34 1.32 -17.68 2.64 -17 4 C-15.948125 3.360625 -14.89625 2.72125 -13.8125 2.0625 C-8.85009827 -0.75318871 -5.57317148 -1.21276655 0 0 Z " fill="#000000" transform="translate(1881,889)"/>
<path d="M0 0 C0.02685938 2.14576637 0.04633088 4.29162645 0.0625 6.4375 C0.07410156 7.63246094 0.08570312 8.82742188 0.09765625 10.05859375 C0 13 0 13 -1 14 C-4.00198908 14.41782601 -7.00748102 14.77184927 -10.01953125 15.109375 C-13.98549207 16.29448518 -14.86972836 17.44524085 -17 21 C-17.60445841 24.441287 -17.60490445 27.84436227 -17.609375 31.33203125 C-17.62591125 32.32377853 -17.64244751 33.31552582 -17.65948486 34.33732605 C-17.70795562 37.49578043 -17.72933418 40.65375334 -17.75 43.8125 C-17.77816039 45.9577065 -17.80808791 48.10289058 -17.83984375 50.24804688 C-17.913714 55.49861054 -17.96536198 60.74903885 -18 66 C-20.96349281 66.98783094 -22.9712663 67.13410525 -26.0625 67.125 C-27.37927734 67.12886719 -27.37927734 67.12886719 -28.72265625 67.1328125 C-31 67 -31 67 -33 66 C-33.02312659 57.54232666 -33.0409167 49.08466644 -33.05181217 40.62696934 C-33.05704031 36.70011342 -33.06413669 32.77327906 -33.07543945 28.84643555 C-33.0862708 25.05985743 -33.09227736 21.2733001 -33.09487724 17.48670769 C-33.09673105 16.03895681 -33.10035081 14.59120712 -33.10573006 13.14346504 C-33.11294367 11.12242865 -33.11340808 9.10137152 -33.11352539 7.08032227 C-33.115746 5.92782486 -33.11796661 4.77532745 -33.12025452 3.58790588 C-33 1 -33 1 -32 0 C-29.81360547 -0.07258946 -27.62499611 -0.08373783 -25.4375 -0.0625 C-23.64119141 -0.04896484 -23.64119141 -0.04896484 -21.80859375 -0.03515625 C-20.88175781 -0.02355469 -19.95492187 -0.01195312 -19 0 C-18.34 1.32 -17.68 2.64 -17 4 C-15.948125 3.360625 -14.89625 2.72125 -13.8125 2.0625 C-8.85009827 -0.75318871 -5.57317148 -1.21276655 0 0 Z " fill="#000000" transform="translate(2279,889)"/>
<path d="M0 0 C0.02685412 2.31243792 0.04632841 4.6249627 0.0625 6.9375 C0.07410156 8.22527344 0.08570313 9.51304687 0.09765625 10.83984375 C0 14 0 14 -1 15 C-2.41340094 15.15769349 -3.83125522 15.27634556 -5.25 15.375 C-9.19223405 15.78865254 -11.89667617 16.36687675 -15 19 C-17.6153001 23.72062247 -17.34773741 28.64209896 -17.4140625 33.89453125 C-17.43342865 34.84188644 -17.4527948 35.78924164 -17.4727478 36.76530457 C-17.53236371 39.78094577 -17.57885705 42.79662552 -17.625 45.8125 C-17.66319633 47.86134446 -17.70224902 49.91017314 -17.7421875 51.95898438 C-17.83805053 56.97252762 -17.92214807 61.98614603 -18 67 C-20.62329684 68.31164842 -22.63698625 68.13262846 -25.5625 68.125 C-26.55378906 68.12757813 -27.54507812 68.13015625 -28.56640625 68.1328125 C-31 68 -31 68 -32 67 C-32.09413687 64.94443339 -32.11742998 62.88559819 -32.11352539 60.82788086 C-32.11367142 60.18399918 -32.11381744 59.54011749 -32.1139679 58.87672424 C-32.11326885 56.73939697 -32.10547691 54.60215587 -32.09765625 52.46484375 C-32.09579204 50.98653715 -32.09436815 49.50822993 -32.09336853 48.02992249 C-32.08954359 44.13201198 -32.07971352 40.23413851 -32.06866455 36.33624268 C-32.05844992 32.36153667 -32.0538708 28.38682471 -32.04882812 24.41210938 C-32.03809122 16.60805404 -32.02049462 8.80403692 -32 1 C-27.38 1 -22.76 1 -18 1 C-17.67 2.32 -17.34 3.64 -17 5 C-16.46890625 4.72285156 -15.9378125 4.44570313 -15.390625 4.16015625 C-14.68421875 3.79792969 -13.9778125 3.43570313 -13.25 3.0625 C-12.55390625 2.70285156 -11.8578125 2.34320312 -11.140625 1.97265625 C-7.33986565 0.24566888 -4.1669074 -0.11574743 0 0 Z " fill="#000000" transform="translate(1723,888)"/>
<path d="M0 0 C1.1859375 0.00257813 2.371875 0.00515625 3.59375 0.0078125 C4.7796875 0.00523437 5.965625 0.00265625 7.1875 0 C10.09375 0.1328125 10.09375 0.1328125 11.09375 1.1328125 C11.18784479 3.15775481 11.21118122 5.1860112 11.20727539 7.21313477 C11.20719986 8.51440811 11.20712433 9.81568146 11.20704651 11.15638733 C11.20193909 12.58733152 11.19672308 14.01827532 11.19140625 15.44921875 C11.18954203 16.9051051 11.18811815 18.36099207 11.18711853 19.81687927 C11.18329365 23.65560629 11.17346364 27.49429569 11.16241455 31.33300781 C11.15219978 35.24739066 11.14762077 39.16177956 11.14257812 43.07617188 C11.13184134 50.76173593 11.11476529 58.44726895 11.09375 66.1328125 C8.13025719 67.12064344 6.1224837 67.26691775 3.03125 67.2578125 C1.71447266 67.26167969 1.71447266 67.26167969 0.37109375 67.265625 C-1.90625 67.1328125 -1.90625 67.1328125 -3.90625 66.1328125 C-3.92937659 57.67513916 -3.9471667 49.21747894 -3.95806217 40.75978184 C-3.96329031 36.83292592 -3.97038669 32.90609156 -3.98168945 28.97924805 C-3.9925208 25.19266993 -3.99852736 21.4061126 -4.00112724 17.61952019 C-4.00298105 16.17176931 -4.00660081 14.72401962 -4.01198006 13.27627754 C-4.01919367 11.25524115 -4.01965808 9.23418402 -4.01977539 7.21313477 C-4.021996 6.06063736 -4.02421661 4.90813995 -4.02650452 3.72071838 C-3.85602322 0.05192017 -3.70646657 0.16938154 0 0 Z " fill="#000000" transform="translate(2015.90625,888.8671875)"/>
<path d="M0 0 C2.14576637 -0.02685938 4.29162645 -0.04633088 6.4375 -0.0625 C7.63246094 -0.07410156 8.82742187 -0.08570313 10.05859375 -0.09765625 C13 0 13 0 14 1 C14.09409479 3.02494231 14.11743122 5.0531987 14.11352539 7.08032227 C14.11344986 8.38159561 14.11337433 9.68286896 14.11329651 11.02357483 C14.10818909 12.45451902 14.10297308 13.88546282 14.09765625 15.31640625 C14.09579203 16.7722926 14.09436815 18.22817957 14.09336853 19.68406677 C14.08954365 23.52279379 14.07971364 27.36148319 14.06866455 31.20019531 C14.05844978 35.11457816 14.05387077 39.02896706 14.04882812 42.94335938 C14.03809134 50.62892343 14.02101529 58.31445645 14 66 C11.37670316 67.31164842 9.36301375 67.13262846 6.4375 67.125 C5.44621094 67.12757813 4.45492187 67.13015625 3.43359375 67.1328125 C1 67 1 67 0 66 C-0.09413687 63.94443339 -0.11742998 61.88559819 -0.11352539 59.82788086 C-0.11367142 59.18399918 -0.11381744 58.54011749 -0.1139679 57.87672424 C-0.11326885 55.73939697 -0.10547691 53.60215587 -0.09765625 51.46484375 C-0.09579204 49.98653715 -0.09436815 48.50822993 -0.09336853 47.02992249 C-0.08954359 43.13201198 -0.07971352 39.23413851 -0.06866455 35.33624268 C-0.05844992 31.36153667 -0.0538708 27.38682471 -0.04882812 23.41210938 C-0.03809122 15.608056 -0.02101509 7.80403318 0 0 Z " fill="#000000" transform="translate(2285,889)"/>
<path d="M0 0 C4.95 0 9.9 0 15 0 C15 4.62 15 9.24 15 14 C10.05 14 5.1 14 0 14 C0 9.38 0 4.76 0 0 Z " fill="#000000" transform="translate(2012,867)"/>
<path d="M0 0 C4.62 0 9.24 0 14 0 C14 4.62 14 9.24 14 14 C9.38 14 4.76 14 0 14 C0 9.38 0 4.76 0 0 Z " fill="#000000" transform="translate(2285,867)"/>
</svg>
